<svg width="26" height="23" viewBox="0 0 26 23" fill="none" xmlns="http://www.w3.org/2000/svg">
<path d="M11.5993 22.4015C11.5223 22.4015 11.4462 22.3855 11.3758 22.3547C11.3053 22.3239 11.242 22.2788 11.1897 22.2223L0.148166 10.2785C0.0745603 10.1988 0.0257641 10.0995 0.00774994 9.99255C-0.0102643 9.88562 0.00328482 9.77576 0.0467391 9.67641C0.0901934 9.57707 0.161668 9.49254 0.252415 9.43318C0.343162 9.37383 0.449244 9.34221 0.55768 9.34221H5.87249C5.95229 9.34222 6.03115 9.35935 6.10377 9.39243C6.17639 9.42552 6.24106 9.47379 6.29343 9.534L9.98357 13.7794C10.3824 12.9269 11.1544 11.5075 12.5091 9.77782C14.5119 7.2208 18.2372 3.46023 24.6107 0.0654448C24.7339 -0.000155349 24.8772 -0.0171812 25.0124 0.0177294C25.1475 0.05264 25.2646 0.136949 25.3406 0.254009C25.4166 0.371069 25.446 0.512371 25.4229 0.650012C25.3998 0.787654 25.3259 0.91163 25.2158 0.99746C25.1915 1.01648 22.7341 2.95167 19.9059 6.49631C17.3031 9.75825 13.843 15.092 12.1404 21.9778C12.1105 22.0988 12.041 22.2063 11.9429 22.2831C11.8447 22.3599 11.7237 22.4017 11.5991 22.4017L11.5993 22.4015Z" fill="#AC823B"/>
</svg>
