<svg width="99" height="99" viewBox="0 0 99 99" fill="none" xmlns="http://www.w3.org/2000/svg" xmlns:xlink="http://www.w3.org/1999/xlink">
<g id="Repeat group 3_inner" data-figma-trr="r6u2.5-0f">
<g clip-path="url(#clip0_3460_21716)">
<path d="M55.7236 11.2887C55.268 10.9525 54.839 10.6485 54.4325 10.3604C52.8221 9.22087 51.6549 8.39176 50.5948 6.81026C50.3288 5.98342 50.0745 5.06619 49.7791 3.99722L49.1944 1.89453L47.595 2.65928L47.6676 3.01156C47.6721 3.03405 47.7893 3.6206 47.9015 4.56006C47.6139 5.19117 47.3704 5.7557 47.1517 6.26453C46.7999 7.08413 46.511 7.75505 46.183 8.35544C45.5051 8.79457 44.7504 9.18191 43.9512 9.58962C42.943 10.1044 41.9009 10.637 41.0247 11.2846C37.6048 13.6437 35.5124 17.0358 35.6902 19.9313C35.6832 20.2993 35.7059 22.7736 37.393 24.5913C38.5647 25.8535 40.2439 26.4933 42.3844 26.4933C42.7501 26.4933 43.1203 26.4442 43.5088 26.3543C43.9214 26.4476 44.343 26.4945 44.7659 26.4943C44.7816 26.4943 44.7977 26.4937 44.8133 26.4937C44.801 26.5498 44.7973 26.6081 44.8074 26.6684C44.8253 26.7755 44.8806 26.8728 44.9634 26.943C45.0463 27.0132 45.1513 27.0519 45.2599 27.052C45.2854 27.0522 45.3109 27.05 45.336 27.0454L46.9002 26.7841L46.1504 27.5352C46.1078 27.5779 46.0739 27.6285 46.0508 27.6843C46.0278 27.74 46.0159 27.7997 46.0159 27.8601C46.016 27.9204 46.0279 27.9801 46.0511 28.0358C46.0742 28.0915 46.1081 28.1421 46.1509 28.1847C46.1935 28.2273 46.2442 28.2611 46.2999 28.2841C46.3557 28.3071 46.4154 28.3189 46.4757 28.3188C46.5361 28.3188 46.5959 28.3069 46.6518 28.2838C46.7076 28.2607 46.7583 28.2269 46.801 28.1842L47.8386 27.1446V28.4685C47.8386 28.7219 48.0443 28.9278 48.298 28.9278C48.5514 28.9278 48.7573 28.722 48.7573 28.4684V27.1446L49.7949 28.184C49.8375 28.2269 49.8881 28.2609 49.944 28.284C49.9998 28.3071 50.0597 28.3189 50.1201 28.3187C50.1804 28.3188 50.2401 28.307 50.2958 28.284C50.3515 28.261 50.4021 28.2273 50.4448 28.1847C50.6244 28.0054 50.6248 27.7146 50.4454 27.5352L49.6938 26.7824L51.245 27.0932C51.2747 27.0992 51.305 27.1023 51.3353 27.1025C51.4414 27.1024 51.5442 27.0655 51.6262 26.9982C51.7082 26.9308 51.7644 26.8372 51.7851 26.7331C51.7988 26.6638 51.7934 26.5964 51.7767 26.532C52.1671 26.5099 52.5557 26.4241 52.9348 26.2771C53.4075 26.4103 53.8829 26.4852 54.3519 26.493C54.388 26.4935 54.4239 26.4938 54.4598 26.4938C55.9485 26.4938 57.1831 25.9848 58.1308 24.9808C59.827 23.183 59.9998 20.4036 60.0153 19.9488H60.0167C60.1217 18.3091 59.916 14.1841 55.7237 11.2886L55.7236 11.2887ZM49.7437 7.16212V7.16291C49.7455 7.16893 49.7474 7.17447 49.7496 7.18044C49.7893 7.30262 49.8299 7.42452 49.8713 7.54613C49.8759 7.55933 49.881 7.57274 49.8856 7.58594C49.9503 7.77338 50.0169 7.95759 50.085 8.13806C50.1162 8.22117 50.1479 8.30385 50.1805 8.38622C50.2077 8.45473 50.2351 8.52312 50.2628 8.5914C50.307 8.69931 50.3526 8.80664 50.3995 8.91337C50.4302 8.98334 50.4615 9.05304 50.4934 9.12245C50.5412 9.22756 50.5905 9.33201 50.6412 9.43577C50.7126 9.58079 50.7867 9.72443 50.8635 9.86661C50.9007 9.93551 50.937 10.0044 50.9756 10.0729C51.0441 10.1948 51.1148 10.3155 51.1878 10.4348C51.235 10.5128 51.2856 10.591 51.3357 10.6685C51.3747 10.7291 51.4136 10.7902 51.4547 10.8512C51.5071 10.9304 51.5607 11.0092 51.616 11.0878C51.6614 11.153 51.7096 11.2187 51.7568 11.2844C51.835 11.392 51.9155 11.4995 51.9986 11.6074C52.0706 11.7014 52.1439 11.7945 52.2184 11.8867C52.2677 11.9473 52.3195 12.0083 52.3706 12.0693C52.4486 12.1626 52.529 12.2564 52.6113 12.3505C52.7905 12.5557 52.9744 12.7568 53.1628 12.9535C53.3695 13.1556 53.5615 13.3607 53.7426 13.5673C53.7744 13.6036 53.8018 13.6399 53.8325 13.6762C53.9847 13.8548 54.1308 14.0339 54.2644 14.215C54.2805 14.2366 54.2951 14.258 54.3108 14.2801C56.1918 16.8686 56.2726 19.6723 55.6098 21.7585C55.6038 21.7775 55.5978 21.7966 55.5914 21.8154C55.542 21.967 55.4878 22.1169 55.4289 22.265C55.4188 22.2904 55.408 22.3155 55.3979 22.3403C55.3471 22.464 55.2928 22.5863 55.235 22.707C55.2006 22.7784 55.1652 22.8493 55.1288 22.9196C55.1086 22.9582 55.089 22.9972 55.0682 23.0353C55.0264 23.1119 54.9838 23.1874 54.9396 23.2618C54.9217 23.2925 54.9037 23.3229 54.8854 23.3532C54.8345 23.4361 54.7818 23.518 54.7274 23.5988C54.7167 23.6145 54.7062 23.6306 54.6952 23.6463C54.1499 24.4376 53.4683 25.0459 52.718 25.3705C52.7083 25.3746 52.7008 25.3825 52.6918 25.3869C52.2116 25.5878 51.7166 25.6664 51.2305 25.5988C51.1893 25.5932 51.1477 25.5905 51.1061 25.5905C51.0455 25.5905 50.9913 25.5961 50.9471 25.6003C50.9246 25.6025 50.9017 25.6056 50.8793 25.6056H49.3726C48.7108 25.6056 48.0547 25.3892 47.465 25.0137C47.3607 24.947 47.2611 24.874 47.1627 24.7992C47.1204 24.7666 47.0777 24.7344 47.0365 24.7004C46.9557 24.6335 46.8771 24.5639 46.8009 24.4918C46.7373 24.4312 46.6756 24.3687 46.6157 24.3044C46.5611 24.2464 46.5056 24.1887 46.454 24.1274C46.3549 24.0104 46.2614 23.8887 46.1739 23.7628C46.1601 23.7436 46.1451 23.7257 46.1316 23.7059C46.026 23.548 45.9295 23.3843 45.8427 23.2154C45.7775 23.0885 45.7154 22.9598 45.6608 22.8266C45.6585 22.8208 45.6567 22.8147 45.6544 22.8089C45.597 22.6669 45.5462 22.5224 45.502 22.3757C45.4974 22.3601 45.4927 22.3444 45.4882 22.3287C45.4437 22.1777 45.4063 22.0246 45.3761 21.87C45.3761 21.8694 45.3761 21.869 45.3756 21.8686C45.3367 21.6631 45.3105 21.4553 45.2972 21.2466C45.2953 21.2162 45.2935 21.1859 45.292 21.1558C45.2881 21.0814 45.2861 21.0069 45.286 20.9324C45.286 20.8485 45.2871 20.7639 45.2912 20.6793C45.293 20.6397 45.2961 20.5994 45.2991 20.5591C45.3048 20.4721 45.3126 20.3849 45.3233 20.2976C45.326 20.2757 45.3283 20.2537 45.331 20.2312C45.4477 19.352 45.7843 18.4622 46.3356 17.6065C46.3375 17.6042 46.3383 17.6015 46.3402 17.5992C46.4207 17.4742 46.5049 17.3515 46.5924 17.2313C46.7512 17.0127 46.8979 16.7858 47.0379 16.5557C47.0595 16.5202 47.0816 16.4858 47.1027 16.4501C47.2555 16.1909 47.3977 15.9256 47.5288 15.6547C47.6484 15.4092 47.7597 15.1596 47.8623 14.9065C47.8627 14.9053 47.8631 14.9038 47.8642 14.9024C49.4397 10.9999 49.0754 6.2932 48.7733 4.08032L48.7186 3.61136L48.8931 4.24141C49.1961 5.33864 49.4607 6.29172 49.7437 7.16212H49.7437ZM38.1043 24.0066C36.5339 22.3557 36.6069 19.9719 36.6077 19.9536C36.6092 19.9323 36.6096 19.9109 36.6084 19.8897C36.444 17.346 38.4283 14.1916 41.559 12.0318C42.3862 11.4205 43.3945 10.9057 44.3695 10.4078C44.5027 10.3397 44.6364 10.2713 44.7704 10.2024C44.4076 10.5588 43.986 10.9102 43.4793 11.2846C39.2811 14.1807 39.0749 18.3088 39.1809 19.9488H39.1823C39.1992 20.457 39.4185 23.8587 41.7004 25.5491C40.1765 25.4324 38.9689 24.9151 38.1043 24.0066ZM43.3467 25.3561C43.2857 25.3364 43.2229 25.318 43.1642 25.2954C43.0561 25.254 42.95 25.2075 42.8463 25.1562C42.823 25.1449 42.8005 25.1322 42.7775 25.1205C42.4374 24.9435 42.1262 24.7158 41.8547 24.4452C40.1994 22.7989 40.1257 19.9631 40.1249 19.9542L40.1271 19.9222L40.1253 19.89C40.0292 18.4061 40.2171 14.6703 44.0405 12.0322C46.435 10.2626 46.9894 8.97129 47.9957 6.62689C48.0184 6.57367 48.0417 6.51987 48.0652 6.46559C48.1906 8.81453 48.0716 11.9671 46.9756 14.6402C46.9643 14.6683 46.9532 14.6967 46.9412 14.7248C46.8855 14.8576 46.8259 14.9884 46.7652 15.1183C46.7313 15.1911 46.6964 15.2634 46.6605 15.3353C46.6098 15.4383 46.5573 15.5404 46.5029 15.6415C46.4462 15.7457 46.3875 15.8488 46.327 15.9507C46.2839 16.0241 46.2419 16.0986 46.1971 16.1712C46.0863 16.3479 45.9714 16.5224 45.8485 16.6916C45.7489 16.8288 45.6531 16.9686 45.5609 17.1108C45.5531 17.1228 45.5462 17.1352 45.5389 17.1472C45.4563 17.2758 45.3773 17.4066 45.3019 17.5395C45.2976 17.5467 45.2941 17.5545 45.29 17.5619C45.2142 17.6967 45.1423 17.8336 45.0744 17.9726C45.0718 17.9786 45.0688 17.9845 45.0662 17.9901C44.9981 18.1301 44.9363 18.2684 44.8798 18.4053C44.8764 18.4131 44.8733 18.4214 44.87 18.4292C44.8151 18.5633 44.7643 18.6991 44.7176 18.8363C44.7139 18.8477 44.7098 18.8588 44.7061 18.8701C44.6613 19.0038 44.6206 19.1387 44.584 19.2748C44.5811 19.2849 44.578 19.2952 44.5751 19.3058C44.5388 19.4432 44.507 19.5818 44.4796 19.7213C44.4709 19.7663 44.465 19.8119 44.4571 19.8568C44.4437 19.934 44.4309 20.0107 44.4208 20.086C44.4095 20.1691 44.4006 20.2518 44.3927 20.3349C44.3905 20.3603 44.3883 20.3855 44.3864 20.4102C44.3262 21.1251 44.3913 21.8327 44.5848 22.5172C44.5852 22.5186 44.5857 22.52 44.5863 22.5214C44.6256 22.6603 44.6699 22.7978 44.7193 22.9335C44.7327 22.9702 44.7465 23.0065 44.7607 23.0428C44.7981 23.1396 44.838 23.2355 44.8806 23.3302C44.9074 23.3906 44.9353 23.4505 44.9641 23.5099C44.9794 23.5411 44.9921 23.5732 45.0078 23.604C45.0344 23.6568 45.0643 23.7069 45.0928 23.7582C45.1167 23.8024 45.14 23.8469 45.1654 23.89C45.2348 24.0101 45.3084 24.1277 45.3863 24.2425C45.402 24.265 45.4189 24.2864 45.435 24.3091C45.5029 24.4059 45.5738 24.5005 45.6476 24.5929C45.6733 24.6247 45.6995 24.6558 45.7257 24.6872C45.8012 24.7776 45.8795 24.8657 45.9605 24.9512C45.9769 24.9687 45.993 24.9866 46.0099 25.0036C46.1147 25.111 46.2218 25.2153 46.333 25.3127C45.8654 25.4771 45.372 25.5646 44.8589 25.5726C44.3094 25.5829 43.8064 25.5068 43.3467 25.3561ZM59.0984 19.935C59.0984 19.9626 59.024 22.8005 57.3691 24.4457C56.5954 25.2146 55.5947 25.5904 54.3655 25.5749C54.2969 25.5736 54.2285 25.5708 54.1601 25.5664C54.891 24.9906 55.5394 24.1792 56.0305 23.1781C56.059 23.1201 56.0837 23.0568 56.1114 22.997C56.1182 22.9819 56.1248 22.9667 56.1316 22.9516C56.2096 22.7791 56.2817 22.604 56.3475 22.4265C56.3723 22.3613 56.3957 22.2955 56.4191 22.2289C56.4588 22.1121 56.4961 21.9945 56.5311 21.8762C56.5673 21.7568 56.6025 21.6378 56.6336 21.5161C56.6447 21.472 56.6538 21.426 56.6643 21.3815C56.6998 21.2342 56.7379 21.0879 56.7658 20.9378C56.9826 19.7669 56.9615 18.5882 56.7198 17.445C56.6973 17.3349 56.667 17.2241 56.6399 17.1133C56.6179 17.0257 56.5973 16.938 56.5725 16.8512C56.5306 16.6996 56.4828 16.5476 56.4323 16.3956C56.4226 16.3665 56.4127 16.3381 56.4026 16.3096C56.2241 15.7915 55.9928 15.2726 55.7038 14.7572C55.7003 14.7512 55.697 14.7448 55.6937 14.7388C55.5994 14.5707 55.5001 14.4055 55.3961 14.2432C55.3784 14.2152 55.3586 14.1879 55.3407 14.1601C55.191 13.9324 55.0326 13.7105 54.866 13.4949C54.771 13.3714 54.674 13.2487 54.573 13.128C54.5096 13.0529 54.4453 12.9781 54.3791 12.9038C54.1997 12.7007 54.014 12.501 53.8164 12.3076C53.6816 12.167 53.5491 12.0241 53.4192 11.879C53.3728 11.8276 53.3293 11.7767 53.2841 11.7251C53.1556 11.5793 53.0302 11.4308 52.9079 11.2796C52.8454 11.2025 52.7839 11.1246 52.7233 11.0459C52.6759 10.9843 52.6276 10.9228 52.5823 10.8618C52.5178 10.775 52.4547 10.6873 52.3929 10.5986C52.3385 10.5214 52.285 10.4435 52.2323 10.3651C52.1675 10.2682 52.1035 10.1719 52.0431 10.075C52.0058 10.0156 51.9709 9.95637 51.9354 9.89713C51.8882 9.8185 51.8418 9.73937 51.7962 9.65974C51.7618 9.59955 51.7284 9.53888 51.6952 9.47827C51.6809 9.4525 51.6681 9.42626 51.6544 9.4005C52.3337 10.0009 53.0741 10.525 53.9018 11.1111C54.3057 11.3968 54.7318 11.6981 55.1838 12.0327C55.188 12.0353 55.1921 12.0385 55.1958 12.0413C59.007 14.6693 59.1947 18.4051 59.0984 19.935Z" fill="#0E311A" stroke="#0E311A" stroke-width="0.43541"/>
</g>
</g>
<use xlink:href="#Repeat%20group%203_inner" transform="translate(67.2103 -18.0089) rotate(60)"/>
<use xlink:href="#Repeat%20group%203_inner" transform="translate(116.412 31.1924) rotate(120)"/>
<use xlink:href="#Repeat%20group%203_inner" transform="translate(98.4027 98.4027) rotate(-180)"/>
<use xlink:href="#Repeat%20group%203_inner" transform="translate(31.1924 116.412) rotate(-120)"/>
<use xlink:href="#Repeat%20group%203_inner" transform="translate(-18.0089 67.2103) rotate(-60)"/>
<path d="M66.5269 49.6614C66.5268 40.346 58.9749 32.7943 49.6594 32.7943C40.3441 32.7945 32.7925 40.346 32.7924 49.6614C32.7924 58.9768 40.344 66.5287 49.6594 66.5288V67.9579L49.1874 67.952C39.3009 67.7015 31.3633 59.6083 31.3633 49.6614C31.3634 39.5567 39.5548 31.3653 49.6594 31.3652C59.7641 31.3652 67.9559 39.5567 67.956 49.6614L67.95 50.1338C67.6996 60.0203 59.6063 67.9579 49.6594 67.9579V66.5288C58.9749 66.5288 66.5269 58.9769 66.5269 49.6614Z" fill="#0E311A"/>
<mask id="path-3-inside-1_3460_21716" fill="white">
<path d="M81.3355 72.7633C78.1624 77.1138 74.1272 80.7639 69.4813 83.4863C64.8355 86.2087 59.6787 87.9448 54.3324 88.5866L54.1646 87.1891C59.319 86.5704 64.2907 84.8965 68.7697 82.2719C73.2488 79.6473 77.1392 76.1282 80.1983 71.9339L81.3355 72.7633Z"/>
</mask>
<path d="M81.3355 72.7633C78.1624 77.1138 74.1272 80.7639 69.4813 83.4863C64.8355 86.2087 59.6787 87.9448 54.3324 88.5866L54.1646 87.1891C59.319 86.5704 64.2907 84.8965 68.7697 82.2719C73.2488 79.6473 77.1392 76.1282 80.1983 71.9339L81.3355 72.7633Z" stroke="#0E311A" stroke-width="2.85823" mask="url(#path-3-inside-1_3460_21716)"/>
<mask id="path-4-inside-2_3460_21716" fill="white">
<path d="M85.4991 33.7637C87.612 38.5276 88.754 43.6651 88.8582 48.8756C88.9624 54.0861 88.0268 59.2651 86.106 64.1097L84.7976 63.591C86.6494 58.9202 87.5515 53.9272 87.451 48.9037C87.3505 43.8803 86.2495 38.9273 84.2124 34.3343L85.4991 33.7637Z"/>
</mask>
<path d="M85.4991 33.7637C87.612 38.5276 88.754 43.6651 88.8582 48.8756C88.9624 54.0861 88.0268 59.2651 86.106 64.1097L84.7976 63.591C86.6494 58.9202 87.5515 53.9272 87.451 48.9037C87.3505 43.8803 86.2495 38.9273 84.2124 34.3343L85.4991 33.7637Z" stroke="#0E311A" stroke-width="2.85823" mask="url(#path-4-inside-2_3460_21716)"/>
<mask id="path-5-inside-3_3460_21716" fill="white">
<path d="M55.6208 10.909C64.4657 12.2696 72.579 16.6152 78.6131 23.2239L77.5736 24.173C71.7562 17.8015 63.9342 13.6119 55.4068 12.3001L55.6208 10.909Z"/>
</mask>
<path d="M55.6208 10.909C64.4657 12.2696 72.579 16.6152 78.6131 23.2239L77.5736 24.173C71.7562 17.8015 63.9342 13.6119 55.4068 12.3001L55.6208 10.909Z" stroke="#0E311A" stroke-width="2.85823" mask="url(#path-5-inside-3_3460_21716)"/>
<mask id="path-6-inside-4_3460_21716" fill="white">
<path d="M19.8616 24.1797C25.2041 17.9318 32.3753 13.5213 40.3614 11.5717L40.6955 12.9402C32.9964 14.8197 26.0828 19.0718 20.9322 25.0952L19.8616 24.1797Z"/>
</mask>
<path d="M19.8616 24.1797C25.2041 17.9318 32.3753 13.5213 40.3614 11.5717L40.6955 12.9402C32.9964 14.8197 26.0828 19.0718 20.9322 25.0952L19.8616 24.1797Z" stroke="#0E311A" stroke-width="2.85823" mask="url(#path-6-inside-4_3460_21716)"/>
<mask id="path-7-inside-5_3460_21716" fill="white">
<path d="M12.8212 63.0789C9.90059 55.0614 9.67538 46.3099 12.1797 38.1528L13.5252 38.5659C11.1108 46.4302 11.3279 54.8675 14.1437 62.5971L12.8212 63.0789Z"/>
</mask>
<path d="M12.8212 63.0789C9.90059 55.0614 9.67538 46.3099 12.1797 38.1528L13.5252 38.5659C11.1108 46.4302 11.3279 54.8675 14.1437 62.5971L12.8212 63.0789Z" stroke="#0E311A" stroke-width="2.85823" mask="url(#path-7-inside-5_3460_21716)"/>
<mask id="path-8-inside-6_3460_21716" fill="white">
<path d="M44.4031 88.5121C34.8709 87.2225 26.1454 82.4735 19.8868 75.169L20.9556 74.2532C26.9895 81.2955 35.4018 85.8739 44.5918 87.1173L44.4031 88.5121Z"/>
</mask>
<path d="M44.4031 88.5121C34.8709 87.2225 26.1454 82.4735 19.8868 75.169L20.9556 74.2532C26.9895 81.2955 35.4018 85.8739 44.5918 87.1173L44.4031 88.5121Z" stroke="#0E311A" stroke-width="2.85823" mask="url(#path-8-inside-6_3460_21716)"/>
<g id="Repeat group 4_inner" data-figma-trr="r1u2.5-0f">
<path d="M53.6386 51.9119C53.9409 51.9528 54.2455 51.9738 54.5505 51.9748C55.4637 51.978 56.3655 51.7715 57.1863 51.3713C61.1378 49.4458 63.0151 43.3341 63.6391 40.7958C63.655 40.7309 63.6564 40.6633 63.6431 40.5978C63.6299 40.5323 63.6023 40.4705 63.5623 40.417C63.5224 40.3634 63.471 40.3194 63.4121 40.288C63.3531 40.2566 63.2879 40.2386 63.2211 40.2354C62.7579 40.2135 62.2861 40.2021 61.8177 40.2021C58.9673 40.2021 53.8032 40.6192 51.2419 43.412C50.7336 43.9645 50.3353 44.6089 50.0683 45.3106C49.8013 44.6089 49.4029 43.9645 48.8946 43.412C46.3334 40.6192 41.169 40.2021 38.3187 40.2021C37.8505 40.2021 37.3787 40.2135 36.9154 40.2352C36.8487 40.2384 36.7835 40.2564 36.7244 40.2878C36.6654 40.3192 36.6141 40.3632 36.5742 40.4168C36.5342 40.4704 36.5066 40.5322 36.4934 40.5977C36.4801 40.6632 36.4815 40.7309 36.4975 40.7958C37.1212 43.3341 38.9988 49.446 42.9503 51.3713C43.7711 51.7715 44.6729 51.978 45.5861 51.9748H45.5865C45.8749 51.9734 46.1629 51.9541 46.4489 51.9171C45.6725 52.7499 45.1533 53.7892 44.9537 54.9101C44.1699 59.3882 48.5666 64.7693 49.9327 66.3117C49.9752 66.3597 50.0273 66.3981 50.0858 66.4244C50.1442 66.4507 50.2075 66.4643 50.2716 66.4643H50.2809C50.3464 66.463 50.4109 66.4474 50.4698 66.4187C50.5288 66.3901 50.5808 66.3489 50.6223 66.2981C51.9248 64.7043 56.0989 59.1587 55.1321 54.7143C54.9006 53.6609 54.3839 52.6915 53.6386 51.9119ZM51.9089 44.0237C54.3234 41.3919 59.6431 41.1077 61.8179 41.1077C62.0855 41.1077 62.3538 41.1116 62.6207 41.1191C61.9934 43.4516 60.1983 48.8963 56.7898 50.5571C55.1704 51.3466 53.3689 51.2336 51.1842 50.2166L53.2931 48.6436C53.6949 48.9746 54.1652 49.212 54.6701 49.3387C55.0373 49.4392 55.7987 49.7129 55.8747 49.0942C55.8893 48.9751 55.856 48.8551 55.7823 48.7605C55.7085 48.6658 55.6003 48.6043 55.4812 48.5893C54.9735 48.52 54.4855 48.347 54.0475 48.081L55.6644 46.8748C56.4303 47.5404 57.5942 47.7016 57.7421 47.7197C57.8608 47.7334 57.98 47.6995 58.0739 47.6256C58.1678 47.5517 58.2287 47.4437 58.2432 47.3251C58.2578 47.2065 58.2249 47.087 58.1518 46.9925C58.0786 46.8981 57.971 46.8364 57.8525 46.8209C57.3447 46.7514 56.8565 46.5782 56.4183 46.3122L58.1987 44.9841C58.661 45.2844 59.1967 45.4525 59.7477 45.4702C59.8678 45.4698 59.9828 45.4218 60.0675 45.3366C60.1522 45.2515 60.1995 45.1361 60.1992 45.016C60.1988 44.896 60.1508 44.7809 60.0656 44.6963C59.9804 44.6116 59.8651 44.5643 59.745 44.5646C59.4868 44.5516 59.2329 44.4923 58.9956 44.3896L59.7683 43.8134C59.8646 43.7416 59.9284 43.6344 59.9457 43.5155C59.963 43.3967 59.9323 43.2758 59.8605 43.1795C59.7886 43.0832 59.6815 43.0194 59.5626 43.0021C59.4437 42.9849 59.3228 43.0155 59.2266 43.0874L57.2356 44.5725C57.19 44.2894 57.2015 43.9999 57.2696 43.7213C57.3042 43.6063 57.2916 43.4822 57.2348 43.3764C57.1779 43.2707 57.0813 43.1918 56.9663 43.1572C56.8513 43.1226 56.7272 43.1351 56.6215 43.192C56.5157 43.2489 56.4368 43.3455 56.4022 43.4605C56.2565 44.0189 56.2743 44.6074 56.4534 45.156L54.8654 46.3403C54.8198 46.0572 54.8312 45.7678 54.8992 45.4892C54.9338 45.3742 54.9212 45.2502 54.8644 45.1444C54.8075 45.0386 54.7109 44.9597 54.5959 44.9252C54.4809 44.8906 54.3569 44.9031 54.2511 44.96C54.1453 45.0168 54.0664 45.1134 54.0318 45.2284C53.8864 45.7868 53.9043 46.3752 54.0835 46.9237C54.0835 46.9237 53.0751 47.6762 53.0708 47.6792L52.4957 48.1084C52.45 47.8253 52.4615 47.5358 52.5297 47.2572C52.5643 47.1421 52.5519 47.0181 52.495 46.9123C52.4382 46.8064 52.3417 46.7275 52.2267 46.6929C52.1116 46.6582 51.9876 46.6707 51.8817 46.7275C51.7759 46.7843 51.697 46.8809 51.6624 46.9959C51.5166 47.5544 51.5343 48.1431 51.7133 48.6918L50.6424 49.491C50.294 47.1256 50.709 45.3332 51.9094 44.024L51.9089 44.0237ZM45.5863 51.0693C44.8103 51.0746 44.0437 50.8992 43.3472 50.5571C39.9385 48.8963 38.1432 43.4519 37.5159 41.1191C37.783 41.1116 38.0511 41.1077 38.3184 41.1077C40.4934 41.1077 45.8131 41.3919 48.2272 44.0237C49.4276 45.3332 49.8426 47.1256 49.4944 49.4908L48.4235 48.6918C48.6024 48.1431 48.62 47.5544 48.4742 46.9959C48.4569 46.939 48.4286 46.8861 48.3908 46.8401C48.3531 46.7942 48.3066 46.7562 48.2542 46.7282C48.2017 46.7002 48.1442 46.6828 48.0851 46.677C48.0259 46.6712 47.9661 46.6771 47.9092 46.6945C47.8523 46.7118 47.7994 46.7401 47.7535 46.7779C47.7075 46.8156 47.6695 46.862 47.6415 46.9145C47.6135 46.967 47.5961 47.0244 47.5903 47.0836C47.5846 47.1428 47.5905 47.2025 47.6078 47.2594C47.6757 47.5373 47.687 47.8261 47.6411 48.1084L47.066 47.6792L47.0638 47.6776L47.0615 47.6762L46.0531 46.9239C46.2323 46.3753 46.2502 45.7869 46.1047 45.2284C46.0875 45.1715 46.0591 45.1186 46.0214 45.0726C45.9837 45.0266 45.9373 44.9886 45.8848 44.9605C45.8323 44.9325 45.7749 44.9151 45.7157 44.9093C45.6565 44.9035 45.5968 44.9093 45.5399 44.9266C45.483 44.9439 45.43 44.9722 45.3841 45.0099C45.3381 45.0477 45.3 45.0941 45.272 45.1466C45.244 45.199 45.2265 45.2565 45.2207 45.3156C45.2149 45.3748 45.2208 45.4346 45.2381 45.4915C45.3058 45.7694 45.317 46.0581 45.2709 46.3405L43.6832 45.156C43.8623 44.6073 43.8801 44.0187 43.7343 43.4602C43.7171 43.4033 43.6887 43.3504 43.651 43.3044C43.6132 43.2585 43.5668 43.2204 43.5143 43.1924C43.4619 43.1644 43.4044 43.147 43.3452 43.1412C43.286 43.1354 43.2263 43.1413 43.1694 43.1586C43.1125 43.1759 43.0595 43.2042 43.0136 43.2419C42.9676 43.2797 42.9295 43.3261 42.9015 43.3786C42.8735 43.431 42.8561 43.4885 42.8503 43.5477C42.8445 43.6069 42.8504 43.6666 42.8677 43.7235C42.9357 44.0014 42.9471 44.2902 42.9012 44.5725L40.91 43.0874C40.8137 43.0155 40.6929 42.9849 40.574 43.0021C40.4551 43.0194 40.3479 43.0832 40.2761 43.1795C40.2043 43.2758 40.1736 43.3967 40.1909 43.5155C40.2082 43.6344 40.272 43.7416 40.3682 43.8134L41.1391 44.3885C40.9009 44.4864 40.6485 44.5459 40.3916 44.5646C40.2715 44.5643 40.1562 44.6116 40.071 44.6963C39.9858 44.7809 39.9378 44.896 39.9374 45.016C39.9371 45.1361 39.9844 45.2515 40.0691 45.3366C40.1537 45.4218 40.2688 45.4698 40.3889 45.4702H40.3916C40.9416 45.452 41.4762 45.2838 41.9376 44.9839L43.7183 46.3122C43.2801 46.5781 42.792 46.7511 42.2843 46.8207C42.165 46.8353 42.0565 46.8966 41.9825 46.9912C41.9085 47.0858 41.8752 47.206 41.8898 47.3252C41.9043 47.4444 41.9657 47.553 42.0603 47.6269C42.1549 47.7009 42.2751 47.7343 42.3943 47.7197C42.5424 47.7016 43.7063 47.5402 44.4722 46.8748L46.0891 48.081C45.6511 48.3469 45.1632 48.5199 44.6556 48.5893C44.5372 48.6056 44.4299 48.6674 44.3563 48.7615C44.2827 48.8556 44.2487 48.9747 44.2614 49.0935C44.2949 49.4987 44.747 49.4904 44.7656 49.4883C44.9134 49.4702 46.0773 49.309 46.8435 48.6439L48.9512 50.2157C47.7221 50.7874 46.6166 51.0693 45.5863 51.0693ZM50.2582 65.3043C48.6902 63.4559 45.1876 58.827 45.8457 55.0661C46.0916 53.6635 46.9159 52.4693 48.3477 51.4453C48.7455 51.2999 49.1357 51.1344 49.5168 50.9495L49.5646 53.3407C48.5252 53.58 47.6556 54.4851 47.6139 54.5286C47.5313 54.6156 47.4867 54.7319 47.4898 54.8518C47.4929 54.9718 47.5435 55.0855 47.6304 55.1682C47.718 55.2497 47.8339 55.2937 47.9535 55.2908C48.0731 55.2878 48.1868 55.2382 48.2702 55.1526C48.6424 54.7726 49.0896 54.4743 49.5833 54.2766L49.6234 56.2807C48.5849 56.5196 47.7156 57.424 47.6741 57.4679C47.594 57.5555 47.5515 57.6709 47.5557 57.7895C47.5598 57.9081 47.6103 58.0203 47.6964 58.1019C47.7824 58.1836 47.8971 58.2283 48.0157 58.2263C48.1343 58.2244 48.2474 58.1759 48.3307 58.0914C48.7014 57.7105 49.1483 57.4121 49.6422 57.2157L49.6864 59.4224C49.1624 59.6179 48.7018 59.9527 48.3542 60.3907C48.2834 60.4877 48.2539 60.6089 48.2724 60.7275C48.2909 60.8462 48.3557 60.9527 48.4527 61.0235C48.5497 61.0944 48.6708 61.1238 48.7895 61.1053C48.9082 61.0869 49.0146 61.022 49.0855 60.925C49.2583 60.7151 49.4688 60.5393 49.706 60.4066L49.7289 61.5492C49.7313 61.6677 49.78 61.7805 49.8646 61.8635C49.9492 61.9464 50.063 61.9929 50.1815 61.993H50.1908C50.3108 61.9905 50.425 61.9405 50.5083 61.8539C50.5915 61.7673 50.6369 61.6512 50.6345 61.5311L50.5818 58.8843C50.8536 59.0112 51.0969 59.1919 51.297 59.4154C51.3725 59.5076 51.4811 59.5667 51.5996 59.5801C51.718 59.5935 51.8371 59.5602 51.9313 59.4872C51.978 59.4503 52.0169 59.4045 52.0459 59.3526C52.0748 59.3006 52.0932 59.2435 52.1001 59.1844C52.107 59.1253 52.1021 59.0655 52.0858 59.0082C52.0695 58.951 52.0421 58.8976 52.0051 58.851C51.623 58.4077 51.1225 58.0824 50.5623 57.913L50.5229 55.9465C50.7942 56.0735 51.0371 56.254 51.237 56.4772C51.3126 56.5696 51.4213 56.6287 51.5399 56.642C51.6585 56.6553 51.7776 56.6218 51.8718 56.5485C51.9184 56.5116 51.9572 56.4658 51.9861 56.4138C52.015 56.3618 52.0333 56.3047 52.0401 56.2456C52.0469 56.1865 52.042 56.1267 52.0256 56.0695C52.0093 56.0123 51.9819 55.9589 51.9449 55.9124C51.563 55.4697 51.063 55.1448 50.5034 54.9755L50.464 53.009C50.7351 53.1361 50.9777 53.3165 51.1774 53.5395C51.2529 53.6314 51.3616 53.69 51.48 53.7024C51.5983 53.7149 51.7168 53.6803 51.8098 53.606C51.9028 53.5318 51.9629 53.4239 51.977 53.3058C51.991 53.1876 51.9581 53.0686 51.8851 52.9746C51.5034 52.5322 51.0038 52.2073 50.4446 52.0378L50.421 50.8544C50.8145 51.0514 51.1979 51.2217 51.5711 51.3654C53.0608 52.3378 53.9429 53.5055 54.2474 54.9065C54.9164 57.9814 52.6839 62.2114 50.2582 65.3043Z" fill="#0E311A" stroke="#0E311A" stroke-width="0.43541"/>
</g>
<defs>
<clipPath id="clip0_3460_21716">
<rect width="27.0333" height="27.0333" fill="white" transform="translate(35.6836 1.89355)"/>
</clipPath>
</defs>
</svg>
