<svg width="31" height="31" viewBox="0 0 31 31" fill="none" xmlns="http://www.w3.org/2000/svg">
<path d="M6.53844 19.3557C6.58977 19.3614 6.64138 19.3644 6.69303 19.3645C6.78675 19.3634 6.88007 19.352 6.97129 19.3305C7.72078 20.8906 8.15656 22.5827 8.25387 24.3108C6.47351 27.7881 6.20246 30.2059 6.18803 30.3522C6.1809 30.4197 6.18717 30.488 6.20649 30.553C6.22581 30.6181 6.25779 30.6787 6.30059 30.7314C6.3434 30.784 6.39619 30.8277 6.45593 30.8599C6.51567 30.8921 6.58118 30.9122 6.64871 30.9191C6.66587 30.92 6.68308 30.92 6.70024 30.9191C6.82843 30.9197 6.95226 30.8725 7.04754 30.7868C7.14283 30.701 7.20272 30.5828 7.21554 30.4553C7.36906 29.4517 7.62815 28.4672 7.98849 27.5181C9.83215 27.0949 11.7141 26.8606 13.6053 26.8188C13.6383 26.9452 13.6904 27.0658 13.7599 27.1764C14.5251 28.3534 16.1555 30.3934 18.4723 30.832C18.7875 30.8908 19.1075 30.92 19.4282 30.9191C21.3951 30.9191 23.2125 29.8534 24.1978 29.1495C24.4683 28.9566 24.6538 28.6666 24.7156 28.3401C24.7773 28.0136 24.7105 27.6759 24.5291 27.3975C23.7629 26.22 22.132 24.1799 19.8167 23.7419C17.5015 23.3039 15.2377 24.6071 14.0969 25.4234C13.9589 25.5219 13.8416 25.6465 13.7516 25.7903C11.9661 25.8136 10.1868 26.0067 8.43784 26.3669C9.53053 23.8431 10.989 21.4941 12.7664 19.3954C13.1647 18.9167 13.5517 18.4678 13.9289 18.037C15.1957 17.6778 16.5021 17.4768 17.8184 17.4388C17.8276 17.6742 17.896 17.9035 18.0173 18.1056C18.868 19.5129 20.7004 21.9703 23.412 22.615C23.8919 22.7278 24.3834 22.784 24.8764 22.7824C27.0696 22.7824 29.1174 21.7354 30.2588 21.0206C30.5735 20.827 30.7984 20.5163 30.8841 20.1568C30.9698 19.7973 30.9093 19.4186 30.7158 19.1037C29.864 17.6964 28.0311 15.239 25.3212 14.5943C22.6112 13.9497 19.8682 15.3157 18.4738 16.1887C18.3799 16.2481 18.2934 16.3185 18.2162 16.3984C17.1811 16.4029 16.1486 16.5019 15.1316 16.6942C15.6413 16.1387 16.1546 15.5865 16.6713 15.0375C17.2381 14.4346 17.7792 13.8554 18.3033 13.2741C18.3883 13.2893 18.4745 13.2972 18.5609 13.2978C18.6612 13.2979 18.7613 13.2882 18.8598 13.269C20.7108 12.9129 24.0865 11.9178 25.8967 9.2589C27.707 6.59995 27.3958 3.09642 27.049 1.24288C27.0137 1.04513 26.9393 0.85642 26.8301 0.687834C26.7209 0.519248 26.5791 0.374189 26.4131 0.261181C26.247 0.148172 26.06 0.0694945 25.8632 0.0297703C25.6663 -0.00995397 25.4634 -0.00992309 25.2665 0.0298611C23.4156 0.386449 20.0398 1.38098 18.2296 4.03993C16.4193 6.69888 16.7301 10.204 17.0769 12.059C17.1247 12.3099 17.2351 12.5446 17.3979 12.7413C16.9093 13.2766 16.4163 13.8079 15.919 14.3351C15.0152 15.2912 14.1265 16.2615 13.2533 17.2455L13.2327 17.2687C12.8256 17.7325 12.4082 18.2179 11.9723 18.7389C11.8579 18.8765 11.7574 19.0104 11.6471 19.147C11.8486 17.5212 11.9563 15.8852 11.9697 14.247C12.1185 14.1663 12.2515 14.0595 12.3624 13.9316C13.4259 12.6764 15.1713 10.1571 14.9208 7.38269C14.6704 4.60831 12.4989 2.44198 11.2303 1.3985C11.0899 1.28106 10.9277 1.19247 10.753 1.13781C10.5784 1.08315 10.3946 1.06349 10.2123 1.07996C10.0301 1.09643 9.85281 1.1487 9.69076 1.23378C9.52872 1.31885 9.38505 1.43507 9.26799 1.57576C8.20492 2.83001 6.45856 5.34828 6.70952 8.12472C6.96047 10.9012 9.13143 13.0649 10.4001 14.1089C10.5558 14.2355 10.7368 14.3274 10.9309 14.3784C10.9092 16.5455 10.7179 18.7076 10.3589 20.8449C9.92203 21.4642 9.50947 22.1002 9.12216 22.7515C8.88714 21.3424 8.44886 19.9748 7.82102 18.6915C7.89089 18.5646 7.93863 18.4268 7.96221 18.2839C8.18791 16.8977 8.35487 14.2908 6.93728 12.4094C5.51969 10.5281 2.96946 9.96744 1.57403 9.80202C1.24409 9.76145 0.911284 9.8505 0.645704 10.0504C0.380124 10.2504 0.202503 10.5456 0.150252 10.8739C-0.0754494 12.26 -0.243438 14.8664 1.17467 16.7483C2.59278 18.6302 5.14352 19.1898 6.53844 19.3557ZM18.8747 24.688C19.1257 24.6874 19.3762 24.7102 19.623 24.7561C21.6326 25.1369 23.1177 27.1264 23.6624 27.9607C23.6996 28.0161 23.7136 28.0839 23.7012 28.1494C23.6889 28.215 23.6512 28.2731 23.5964 28.3111C22.7843 28.8913 20.6783 30.1992 18.665 29.8194C16.8135 29.469 15.4124 27.7613 14.7755 26.8379C16.7228 26.8619 18.6357 27.3538 20.3531 28.2719C20.471 28.3386 20.6103 28.3563 20.741 28.3211C20.8717 28.2859 20.9834 28.2006 21.0517 28.0838C21.1201 27.9669 21.1398 27.8278 21.1064 27.6966C21.0731 27.5654 20.9894 27.4526 20.8736 27.3825C19.1702 26.4544 17.2777 25.9266 15.3398 25.8392C16.3968 25.1522 17.6159 24.7552 18.8747 24.688ZM23.8495 15.46C24.264 15.4585 24.6774 15.5056 25.081 15.6002C27.4256 16.1583 29.0638 18.371 29.8326 19.6396C29.8586 19.681 29.8761 19.7271 29.8841 19.7753C29.892 19.8236 29.8902 19.8729 29.8789 19.9204C29.8675 19.9679 29.8467 20.0127 29.8178 20.0521C29.7889 20.0915 29.7524 20.1247 29.7105 20.1498C28.6979 20.7836 26.0817 22.1945 23.649 21.6153C21.3034 21.0567 19.6652 18.8445 18.8974 17.5753C18.8723 17.5347 18.8548 17.4898 18.8459 17.4429C21.372 17.5361 23.8367 18.2474 26.024 19.5144C26.1023 19.5596 26.1913 19.583 26.2817 19.5824C26.3954 19.5828 26.5061 19.5456 26.5965 19.4764C26.6869 19.4073 26.7518 19.3103 26.7812 19.2004C26.8106 19.0905 26.8029 18.9739 26.7591 18.8689C26.7153 18.7639 26.6381 18.6763 26.5393 18.6199C24.5421 17.4654 22.3253 16.7417 20.0316 16.4953C21.2079 15.8619 22.5143 15.5077 23.8495 15.46ZM18.0884 11.8679C17.7704 10.1705 17.4778 6.97251 19.0793 4.62016C20.6809 2.26781 23.7665 1.3681 25.4618 1.04191C25.4958 1.03512 25.5303 1.03167 25.5649 1.03161C25.661 1.03092 25.7552 1.0593 25.8349 1.11302C25.8881 1.15022 25.9334 1.19762 25.9682 1.25246C26.003 1.30731 26.0265 1.3685 26.0374 1.43251C26.3554 3.12991 26.6481 6.32787 25.0465 8.68021C23.631 10.7589 21.0612 11.7019 19.3122 12.1188C21.3939 9.6406 23.0411 6.82786 24.1839 3.7998C24.2347 3.67284 24.233 3.53088 24.1792 3.40515C24.1254 3.27943 24.0238 3.18023 23.8969 3.1294C23.7699 3.07856 23.6279 3.08023 23.5022 3.13406C23.3765 3.18789 23.2773 3.28945 23.2265 3.41642C22.0564 6.54335 20.3241 9.42983 18.1152 11.9333C18.1047 11.9121 18.0958 11.8903 18.0884 11.8679ZM7.736 8.03042C7.51081 5.53843 9.2819 3.15155 10.0548 2.2405C10.0857 2.20276 10.1237 2.17155 10.1667 2.1487C10.2098 2.12586 10.2569 2.11184 10.3055 2.10747C10.354 2.10311 10.4029 2.10848 10.4493 2.12327C10.4958 2.13806 10.5388 2.16197 10.5758 2.19361C11.4987 2.9511 13.6676 4.98242 13.8944 7.4739C14.0845 9.57684 12.8983 11.57 11.9568 12.7928C11.9248 9.98536 11.5358 7.19337 10.7989 4.48412C10.7786 4.41956 10.7458 4.35964 10.7024 4.30776C10.6589 4.25589 10.6057 4.21308 10.5456 4.18179C10.4856 4.15049 10.4201 4.13132 10.3526 4.12538C10.2852 4.11943 10.2173 4.12681 10.1528 4.14711C10.0882 4.16741 10.0283 4.20023 9.9764 4.24369C9.92452 4.28715 9.88172 4.34041 9.85042 4.40041C9.78722 4.52159 9.77475 4.66292 9.81575 4.7933C10.5408 7.5383 10.9138 10.3644 10.9257 13.2035C9.76834 12.227 7.94521 10.3452 7.736 8.03042ZM1.16797 11.0377C1.17702 10.9775 1.20749 10.9226 1.25377 10.883C1.30006 10.8434 1.35906 10.8219 1.41995 10.8223C1.43059 10.8216 1.44127 10.8216 1.4519 10.8223C2.44334 10.9398 4.88278 11.3892 6.11383 13.0263C7.0728 14.2991 7.13876 16.0748 7.04549 17.2651C5.94163 15.4444 4.53712 13.8241 2.89165 12.4728C2.83811 12.4303 2.77664 12.3988 2.71081 12.3803C2.64499 12.3618 2.57614 12.3565 2.50827 12.3649C2.44039 12.3732 2.37486 12.395 2.31549 12.4289C2.25611 12.4628 2.20408 12.5082 2.16243 12.5624C2.12078 12.6167 2.09034 12.6787 2.07289 12.7448C2.05543 12.8109 2.05131 12.8798 2.06077 12.9476C2.07022 13.0153 2.09306 13.0804 2.12796 13.1393C2.16285 13.1981 2.2091 13.2493 2.26402 13.2901C3.94384 14.6973 5.35755 16.3944 6.43795 18.3009C5.34242 18.1463 3.14518 17.6516 1.99658 16.1258C0.766037 14.4923 1.00668 12.024 1.16797 11.0377Z" fill="#D9C2A3"/>
</svg>
