<svg width="187" height="117" viewBox="0 0 187 117" fill="none" xmlns="http://www.w3.org/2000/svg" xmlns:xlink="http://www.w3.org/1999/xlink">
<g id="Repeat group 3_inner" data-figma-trr="r6u2.5-0f">
<g clip-path="url(#clip0_3460_21954)">
<path d="M98.0102 8.21799C97.6785 7.97325 97.3662 7.75192 97.0703 7.54216C95.8979 6.71258 95.0482 6.10898 94.2764 4.95762C94.0827 4.35567 93.8976 3.68792 93.6826 2.90969L93.2569 1.37891L92.0925 1.93565L92.1453 2.19211C92.1486 2.20849 92.2339 2.6355 92.3156 3.31944C92.1063 3.7789 91.9289 4.18989 91.7698 4.56032C91.5136 5.157 91.3033 5.64544 91.0645 6.08253C90.571 6.40222 90.0216 6.68421 89.4397 6.98103C88.7058 7.35581 87.9471 7.7435 87.3092 8.21499C84.8194 9.93243 83.2962 12.402 83.4256 14.5099C83.4205 14.7778 83.437 16.5791 84.6653 17.9024C85.5183 18.8213 86.7408 19.2871 88.2991 19.2871C88.5653 19.2871 88.8348 19.2514 89.1177 19.1859C89.418 19.2538 89.725 19.288 90.0329 19.2879C90.0443 19.2879 90.056 19.2874 90.0674 19.2874C90.0584 19.3283 90.0557 19.3707 90.0631 19.4146C90.0761 19.4926 90.1164 19.5634 90.1767 19.6145C90.237 19.6657 90.3134 19.6938 90.3925 19.6939C90.4111 19.694 90.4296 19.6924 90.4479 19.6891L91.5866 19.4988L91.0408 20.0457C91.0097 20.0767 90.9851 20.1136 90.9683 20.1542C90.9515 20.1947 90.9429 20.2382 90.9429 20.2821C90.9429 20.3261 90.9516 20.3695 90.9685 20.4101C90.9853 20.4506 91.01 20.4875 91.0411 20.5185C91.0722 20.5495 91.1091 20.5741 91.1496 20.5909C91.1902 20.6076 91.2337 20.6162 91.2776 20.6161C91.3216 20.6161 91.3651 20.6075 91.4058 20.5907C91.4464 20.5738 91.4833 20.5492 91.5144 20.5181L92.2698 19.7613V20.7251C92.2698 20.9096 92.4195 21.0595 92.6042 21.0595C92.7887 21.0595 92.9386 20.9096 92.9386 20.725V19.7613L93.694 20.518C93.725 20.5492 93.7619 20.574 93.8026 20.5908C93.8432 20.6076 93.8868 20.6162 93.9308 20.616C93.9747 20.6161 94.0181 20.6075 94.0587 20.5908C94.0992 20.5741 94.1361 20.5495 94.1671 20.5185C94.2979 20.388 94.2982 20.1763 94.1676 20.0456L93.6204 19.4976L94.7497 19.7239C94.7714 19.7283 94.7934 19.7305 94.8155 19.7306C94.8927 19.7306 94.9676 19.7037 95.0273 19.6547C95.087 19.6057 95.1278 19.5375 95.143 19.4617C95.1529 19.4113 95.1489 19.3622 95.1368 19.3153C95.4211 19.2992 95.7039 19.2368 95.9799 19.1297C96.3241 19.2267 96.6702 19.2812 97.0116 19.2869C97.0379 19.2872 97.064 19.2875 97.0901 19.2875C98.1739 19.2875 99.0727 18.917 99.7627 18.186C100.998 16.8772 101.123 14.8537 101.135 14.5226H101.136C101.212 13.3289 101.062 10.3259 98.0102 8.21791L98.0102 8.21799ZM93.6567 5.21378V5.21435C93.6581 5.21874 93.6594 5.22277 93.6611 5.22712C93.69 5.31607 93.7195 5.40481 93.7497 5.49334C93.753 5.50295 93.7567 5.51272 93.76 5.52233C93.8072 5.65878 93.8557 5.79289 93.9052 5.92428C93.9279 5.98478 93.951 6.04498 93.9748 6.10494C93.9945 6.15481 94.0145 6.2046 94.0347 6.25431C94.0668 6.33287 94.1 6.41101 94.1342 6.48871C94.1565 6.53965 94.1793 6.59039 94.2025 6.64093C94.2374 6.71745 94.2733 6.79349 94.3102 6.86902C94.3621 6.97461 94.4161 7.07918 94.472 7.18268C94.4991 7.23285 94.5255 7.28301 94.5536 7.33286C94.6034 7.42164 94.655 7.50949 94.7081 7.59636C94.7425 7.65313 94.7792 7.71002 94.8157 7.76649C94.8441 7.81062 94.8725 7.85505 94.9024 7.89949C94.9405 7.95715 94.9795 8.01453 95.0198 8.07173C95.0529 8.1192 95.088 8.16706 95.1223 8.21484C95.1792 8.29321 95.2378 8.37144 95.2983 8.44997C95.3508 8.51843 95.4042 8.58622 95.4584 8.65331C95.4943 8.69744 95.532 8.74187 95.5692 8.78631C95.626 8.85419 95.6845 8.92249 95.7444 8.99095C95.8749 9.14038 96.0087 9.28676 96.1459 9.43C96.2964 9.57714 96.4361 9.7264 96.568 9.87685C96.5911 9.90329 96.6111 9.9297 96.6335 9.95615C96.7443 10.0861 96.8506 10.2165 96.9479 10.3483C96.9596 10.3641 96.9703 10.3797 96.9817 10.3958C98.351 12.2802 98.4099 14.3213 97.9273 15.8401C97.923 15.8539 97.9186 15.8679 97.914 15.8815C97.878 15.9919 97.8386 16.1011 97.7956 16.2089C97.7883 16.2273 97.7805 16.2457 97.7731 16.2637C97.7361 16.3538 97.6965 16.4428 97.6545 16.5307C97.6294 16.5826 97.6037 16.6342 97.5772 16.6855C97.5625 16.7135 97.5482 16.7419 97.533 16.7697C97.5027 16.8254 97.4716 16.8804 97.4395 16.9346C97.4264 16.9569 97.4133 16.979 97.4 17.0011C97.3629 17.0615 97.3246 17.1211 97.285 17.1799C97.2772 17.1913 97.2695 17.203 97.2615 17.2144C96.8645 17.7906 96.3683 18.2334 95.822 18.4697C95.815 18.4727 95.8096 18.4784 95.803 18.4817C95.4534 18.6279 95.0931 18.6851 94.7392 18.6359C94.7092 18.6318 94.6789 18.6298 94.6486 18.6299C94.6045 18.6299 94.565 18.6339 94.5329 18.637C94.5165 18.6386 94.4998 18.6409 94.4835 18.6409H93.3866C92.9048 18.6409 92.4271 18.4833 91.9978 18.21C91.9219 18.1614 91.8494 18.1083 91.7777 18.0538C91.747 18.03 91.7159 18.0066 91.6859 17.9819C91.627 17.9332 91.5699 17.8825 91.5144 17.83C91.4681 17.7859 91.4231 17.7404 91.3795 17.6936C91.3398 17.6514 91.2994 17.6093 91.2618 17.5647C91.1897 17.4795 91.1216 17.391 91.0579 17.2993C91.0478 17.2853 91.0369 17.2723 91.0271 17.2578C90.9502 17.1429 90.88 17.0237 90.8168 16.9007C90.7693 16.8084 90.7241 16.7147 90.6843 16.6177C90.6827 16.6135 90.6813 16.609 90.6797 16.6048C90.6379 16.5014 90.6009 16.3962 90.5687 16.2895C90.5654 16.2781 90.5619 16.2667 90.5587 16.2553C90.5263 16.1453 90.4991 16.0339 90.4771 15.9213C90.4771 15.9209 90.4771 15.9206 90.4767 15.9203C90.4484 15.7707 90.4293 15.6194 90.4196 15.4674C90.4183 15.4453 90.4169 15.4233 90.4159 15.4013C90.413 15.3472 90.4116 15.293 90.4115 15.2387C90.4115 15.1776 90.4123 15.1161 90.4153 15.0545C90.4166 15.0257 90.4189 14.9963 90.421 14.967C90.4252 14.9036 90.4309 14.8401 90.4387 14.7766C90.4406 14.7607 90.4423 14.7446 90.4442 14.7282C90.5292 14.0882 90.7743 13.4404 91.1756 12.8174C91.177 12.8158 91.1776 12.8138 91.1789 12.8121C91.2376 12.7211 91.2988 12.6318 91.3626 12.5443C91.4782 12.3851 91.585 12.22 91.6869 12.0524C91.7027 12.0266 91.7187 12.0015 91.7341 11.9755C91.8453 11.7869 91.9488 11.5937 92.0443 11.3965C92.1314 11.2178 92.2124 11.0361 92.287 10.8518C92.2873 10.8509 92.2877 10.8498 92.2884 10.8488C93.4354 8.00777 93.1702 4.58119 92.9503 2.97019L92.9105 2.62878L93.0375 3.08747C93.2581 3.88626 93.4507 4.58012 93.6568 5.21378H93.6567ZM85.1831 17.4767C84.0399 16.2749 84.093 14.5395 84.0936 14.5261C84.0946 14.5107 84.0949 14.4951 84.0941 14.4796C83.9744 12.6278 85.419 10.3313 87.6982 8.75898C88.3004 8.31393 89.0345 7.93916 89.7442 7.57668C89.8412 7.52713 89.9385 7.47728 90.0361 7.42715C89.772 7.68661 89.4651 7.94246 89.0962 8.21499C86.0399 10.3234 85.8897 13.3287 85.9669 14.5227H85.9679C85.9802 14.8926 86.1398 17.3691 87.8011 18.5997C86.6917 18.5147 85.8126 18.1382 85.1831 17.4767ZM88.9996 18.4592C88.9552 18.4449 88.9095 18.4315 88.8668 18.415C88.7881 18.3849 88.7109 18.3511 88.6354 18.3137C88.6184 18.3054 88.602 18.2963 88.5852 18.2877C88.3377 18.1589 88.1111 17.9931 87.9134 17.7961C86.7084 16.5976 86.6547 14.533 86.6541 14.5266L86.6558 14.5033L86.6544 14.4799C86.5845 13.3996 86.7213 10.6798 89.5048 8.75928C91.248 7.47097 91.6516 6.53088 92.3842 4.82413C92.4007 4.78538 92.4177 4.74621 92.4348 4.70669C92.5261 6.41675 92.4394 8.71185 91.6415 10.6579C91.6333 10.6784 91.6252 10.6991 91.6165 10.7195C91.5759 10.8162 91.5325 10.9114 91.4884 11.006C91.4637 11.059 91.4382 11.1116 91.4121 11.164C91.3753 11.239 91.337 11.3133 91.2974 11.3869C91.2561 11.4627 91.2134 11.5378 91.1693 11.612C91.138 11.6654 91.1074 11.7196 91.0748 11.7725C90.9941 11.9012 90.9105 12.0282 90.821 12.1513C90.7485 12.2512 90.6787 12.353 90.6116 12.4566C90.606 12.4653 90.6009 12.4743 90.5956 12.483C90.5355 12.5766 90.478 12.6719 90.4231 12.7686C90.4199 12.7739 90.4174 12.7796 90.4144 12.785C90.3592 12.8831 90.3069 12.9828 90.2575 13.0839C90.2555 13.0883 90.2534 13.0926 90.2514 13.0967C90.2019 13.1986 90.1569 13.2993 90.1158 13.3989C90.1133 13.4046 90.1111 13.4107 90.1086 13.4164C90.0687 13.514 90.0317 13.6129 89.9977 13.7128C89.995 13.721 89.992 13.7291 89.9893 13.7374C89.9567 13.8347 89.9271 13.9329 89.9004 14.032C89.8983 14.0393 89.896 14.0468 89.894 14.0545C89.8675 14.1546 89.8444 14.2555 89.8244 14.357C89.8181 14.3898 89.8138 14.423 89.808 14.4557C89.7983 14.5119 89.789 14.5677 89.7816 14.6225C89.7734 14.683 89.7669 14.7432 89.7612 14.8038C89.7595 14.8222 89.7579 14.8405 89.7566 14.8586C89.7127 15.379 89.7602 15.8942 89.901 16.3925C89.9013 16.3935 89.9016 16.3945 89.9021 16.3955C89.9307 16.4967 89.963 16.5967 89.9989 16.6955C90.0087 16.7222 90.0187 16.7487 90.0291 16.7751C90.0563 16.8456 90.0854 16.9154 90.1163 16.9844C90.1359 17.0283 90.1561 17.0719 90.1771 17.1152C90.1882 17.1379 90.1975 17.1613 90.209 17.1837C90.2283 17.2221 90.2501 17.2586 90.2709 17.296C90.2882 17.3281 90.3052 17.3605 90.3237 17.3919C90.3742 17.4793 90.4278 17.5649 90.4845 17.6485C90.4959 17.6649 90.5082 17.6805 90.5199 17.697C90.5694 17.7674 90.621 17.8364 90.6747 17.9036C90.6935 17.9268 90.7125 17.9494 90.7316 17.9723C90.7865 18.0381 90.8435 18.1022 90.9025 18.1645C90.9145 18.1772 90.9262 18.1902 90.9385 18.2026C91.0148 18.2808 91.0927 18.3568 91.1737 18.4276C90.8333 18.5473 90.4741 18.611 90.1006 18.6168C89.7005 18.6243 89.3343 18.5689 88.9996 18.4592ZM100.467 14.5126C100.467 14.5327 100.413 16.5987 99.2081 17.7964C98.6449 18.3562 97.9164 18.6298 97.0215 18.6185C96.9716 18.6176 96.9217 18.6155 96.8719 18.6123C97.404 18.1931 97.8761 17.6024 98.2336 16.8736C98.2544 16.8314 98.2724 16.7853 98.2925 16.7418C98.2975 16.7308 98.3023 16.7197 98.3072 16.7087C98.364 16.5831 98.4165 16.4556 98.4644 16.3264C98.4824 16.279 98.4995 16.2311 98.5165 16.1826C98.5454 16.0976 98.5726 16.012 98.5981 15.9258C98.6245 15.8389 98.65 15.7523 98.6727 15.6637C98.6808 15.6315 98.6874 15.5981 98.695 15.5657C98.7209 15.4584 98.7487 15.3519 98.7689 15.2427C98.9267 14.3902 98.9114 13.5321 98.7355 12.6999C98.7191 12.6197 98.697 12.539 98.6773 12.4584C98.6613 12.3946 98.6463 12.3308 98.6282 12.2675C98.5977 12.1572 98.5629 12.0465 98.5261 11.9359C98.5191 11.9147 98.5119 11.894 98.5045 11.8732C98.3746 11.4961 98.2062 11.1183 97.9958 10.7431C97.9933 10.7387 97.9908 10.7341 97.9885 10.7297C97.9198 10.6074 97.8475 10.487 97.7718 10.3689C97.7589 10.3485 97.7444 10.3287 97.7314 10.3084C97.6225 10.1426 97.5072 9.98109 97.3858 9.82415C97.3167 9.7342 97.2461 9.64487 97.1725 9.557C97.1264 9.50238 97.0796 9.44787 97.0314 9.39383C96.9008 9.24592 96.7656 9.10054 96.6218 8.95974C96.5236 8.8574 96.4272 8.75338 96.3326 8.64773C96.2988 8.61033 96.2671 8.57324 96.2342 8.53572C96.1407 8.42954 96.0494 8.3214 95.9604 8.21138C95.9148 8.15523 95.87 8.09852 95.826 8.04125C95.7914 7.99635 95.7563 7.95161 95.7233 7.90718C95.6764 7.84401 95.6304 7.78014 95.5854 7.7156C95.5458 7.65936 95.5068 7.6027 95.4685 7.54562C95.4213 7.47505 95.3747 7.40494 95.3308 7.33436C95.3036 7.29112 95.2782 7.24803 95.2523 7.2049C95.218 7.14766 95.1842 7.09005 95.151 7.03208C95.126 6.98826 95.1016 6.94409 95.0775 6.89997C95.0671 6.88121 95.0578 6.8621 95.0477 6.84335C95.5423 7.28043 96.0814 7.66197 96.6839 8.08872C96.9779 8.29667 97.2881 8.51604 97.6172 8.75959C97.6202 8.76151 97.6233 8.76382 97.626 8.76589C100.401 10.6791 100.537 13.3988 100.467 14.5126Z" fill="#0E311A" stroke="#0E311A" stroke-width="0.316984"/>
</g>
</g>
<use xlink:href="#Repeat%20group%203_inner" transform="translate(77.6507 -62.8565) rotate(60)"/>
<use xlink:href="#Repeat%20group%203_inner" transform="translate(170.911 -27.0372) rotate(120)"/>
<use xlink:href="#Repeat%20group%203_inner" transform="translate(186.521 71.6385) rotate(-180)"/>
<use xlink:href="#Repeat%20group%203_inner" transform="translate(108.871 134.495) rotate(-120)"/>
<use xlink:href="#Repeat%20group%203_inner" transform="translate(15.61 98.6757) rotate(-60)"/>
<path d="M105.875 36.1538C105.875 29.3721 100.377 23.8744 93.5952 23.8744C86.8135 23.8745 81.3159 29.3721 81.3158 36.1538C81.3158 42.9356 86.8135 48.4335 93.5952 48.4335V49.474L93.2516 49.4696C86.0541 49.2873 80.2754 43.3953 80.2754 36.1538C80.2755 28.7975 86.2389 22.8341 93.5952 22.834C100.952 22.834 106.915 28.7975 106.915 36.1538L106.911 36.4977C106.729 43.6953 100.837 49.474 93.5952 49.474V48.4335C100.377 48.4335 105.875 42.9356 105.875 36.1538Z" fill="#0E311A"/>
<mask id="path-3-inside-1_3460_21954" fill="white">
<path d="M116.654 52.973C114.344 56.1402 111.406 58.7976 108.024 60.7795C104.642 62.7614 100.888 64.0253 96.9955 64.4926L96.8733 63.4752C100.626 63.0247 104.245 61.8061 107.506 59.8954C110.767 57.9846 113.599 55.4226 115.826 52.3692L116.654 52.973Z"/>
</mask>
<path d="M116.654 52.973C114.344 56.1402 111.406 58.7976 108.024 60.7795C104.642 62.7614 100.888 64.0253 96.9955 64.4926L96.8733 63.4752C100.626 63.0247 104.245 61.8061 107.506 59.8954C110.767 57.9846 113.599 55.4226 115.826 52.3692L116.654 52.973Z" stroke="#0E311A" stroke-width="2.08083" mask="url(#path-3-inside-1_3460_21954)"/>
<mask id="path-4-inside-2_3460_21954" fill="white">
<path d="M119.685 24.5807C121.223 28.049 122.055 31.7891 122.131 35.5824C122.207 39.3757 121.525 43.1461 120.127 46.6731L119.175 46.2954C120.523 42.895 121.179 39.26 121.106 35.6029C121.033 31.9458 120.232 28.3399 118.749 24.9962L119.685 24.5807Z"/>
</mask>
<path d="M119.685 24.5807C121.223 28.049 122.055 31.7891 122.131 35.5824C122.207 39.3757 121.525 43.1461 120.127 46.6731L119.175 46.2954C120.523 42.895 121.179 39.26 121.106 35.6029C121.033 31.9458 120.232 28.3399 118.749 24.9962L119.685 24.5807Z" stroke="#0E311A" stroke-width="2.08083" mask="url(#path-4-inside-2_3460_21954)"/>
<mask id="path-5-inside-3_3460_21954" fill="white">
<path d="M97.9334 7.94221C104.373 8.93279 110.279 12.0964 114.672 16.9077L113.915 17.5986C109.68 12.9601 103.986 9.91 97.7776 8.95498L97.9334 7.94221Z"/>
</mask>
<path d="M97.9334 7.94221C104.373 8.93279 110.279 12.0964 114.672 16.9077L113.915 17.5986C109.68 12.9601 103.986 9.91 97.7776 8.95498L97.9334 7.94221Z" stroke="#0E311A" stroke-width="2.08083" mask="url(#path-5-inside-3_3460_21954)"/>
<mask id="path-6-inside-4_3460_21954" fill="white">
<path d="M71.9003 17.6035C75.7897 13.0549 81.0104 9.84399 86.8244 8.42466L87.0676 9.42097C81.4626 10.7893 76.4294 13.8849 72.6797 18.27L71.9003 17.6035Z"/>
</mask>
<path d="M71.9003 17.6035C75.7897 13.0549 81.0104 9.84399 86.8244 8.42466L87.0676 9.42097C81.4626 10.7893 76.4294 13.8849 72.6797 18.27L71.9003 17.6035Z" stroke="#0E311A" stroke-width="2.08083" mask="url(#path-6-inside-4_3460_21954)"/>
<mask id="path-7-inside-5_3460_21954" fill="white">
<path d="M66.7747 45.9226C64.6485 40.0857 64.4846 33.7146 66.3078 27.7761L67.2873 28.0768C65.5296 33.8021 65.6877 39.9446 67.7375 45.5719L66.7747 45.9226Z"/>
</mask>
<path d="M66.7747 45.9226C64.6485 40.0857 64.4846 33.7146 66.3078 27.7761L67.2873 28.0768C65.5296 33.8021 65.6877 39.9446 67.7375 45.5719L66.7747 45.9226Z" stroke="#0E311A" stroke-width="2.08083" mask="url(#path-7-inside-5_3460_21954)"/>
<mask id="path-8-inside-6_3460_21954" fill="white">
<path d="M89.7668 64.4383C82.8272 63.4994 76.4749 60.0422 71.9186 54.7243L72.6968 54.0576C77.0895 59.1846 83.2137 62.5177 89.9042 63.4229L89.7668 64.4383Z"/>
</mask>
<path d="M89.7668 64.4383C82.8272 63.4994 76.4749 60.0422 71.9186 54.7243L72.6968 54.0576C77.0895 59.1846 83.2137 62.5177 89.9042 63.4229L89.7668 64.4383Z" stroke="#0E311A" stroke-width="2.08083" mask="url(#path-8-inside-6_3460_21954)"/>
<g id="Repeat group 4_inner" data-figma-trr="r1u2.5-0f">
<path d="M96.4924 37.7924C96.7125 37.8222 96.9342 37.8375 97.1563 37.8383C97.8211 37.8406 98.4776 37.6903 99.0751 37.3988C101.952 35.997 103.319 31.5477 103.773 29.6997C103.784 29.6525 103.785 29.6033 103.776 29.5556C103.766 29.5079 103.746 29.463 103.717 29.424C103.688 29.385 103.651 29.3529 103.608 29.3301C103.565 29.3072 103.517 29.2941 103.469 29.2918C103.131 29.2758 102.788 29.2676 102.447 29.2676C100.372 29.2676 96.6122 29.5712 94.7476 31.6044C94.3775 32.0067 94.0876 32.4758 93.8932 32.9866C93.6988 32.4758 93.4088 32.0067 93.0387 31.6044C91.1741 29.5712 87.4144 29.2676 85.3393 29.2676C84.9984 29.2676 84.655 29.2758 84.3177 29.2916C84.2691 29.294 84.2216 29.307 84.1787 29.3299C84.1357 29.3528 84.0984 29.3849 84.0693 29.4239C84.0402 29.4629 84.0201 29.5079 84.0104 29.5555C84.0008 29.6032 84.0018 29.6525 84.0135 29.6997C84.4676 31.5477 85.8344 35.9972 88.7112 37.3988C89.3088 37.6902 89.9652 37.8405 90.63 37.8383H90.6304C90.8403 37.8372 91.05 37.8232 91.2582 37.7962C90.693 38.4025 90.315 39.1591 90.1697 39.9752C89.5991 43.2353 92.7999 47.1528 93.7944 48.2757C93.8254 48.3106 93.8634 48.3386 93.9059 48.3577C93.9484 48.3769 93.9945 48.3868 94.0412 48.3868H94.0479C94.0957 48.3858 94.1426 48.3745 94.1855 48.3536C94.2284 48.3327 94.2663 48.3028 94.2965 48.2658C95.2447 47.1055 98.2835 43.0682 97.5797 39.8326C97.4111 39.0657 97.035 38.36 96.4924 37.7924ZM95.2332 32.0498C96.991 30.1337 100.864 29.9269 102.447 29.9269C102.642 29.9269 102.837 29.9297 103.032 29.9351C102.575 31.6333 101.268 35.597 98.7865 36.8061C97.6076 37.3809 96.2961 37.2986 94.7056 36.5583L96.2409 35.4131C96.5334 35.654 96.8758 35.8269 97.2433 35.9191C97.5107 35.9923 98.065 36.1915 98.1203 35.7411C98.1309 35.6544 98.1067 35.567 98.053 35.4981C97.9993 35.4292 97.9205 35.3844 97.8339 35.3735C97.4642 35.3231 97.1089 35.1971 96.7901 35.0035L97.9672 34.1253C98.5248 34.6099 99.3722 34.7273 99.4798 34.7405C99.5662 34.7504 99.653 34.7258 99.7214 34.672C99.7897 34.6182 99.834 34.5395 99.8446 34.4532C99.8553 34.3669 99.8313 34.2798 99.778 34.2111C99.7248 34.1423 99.6465 34.0974 99.5602 34.0861C99.1905 34.0355 98.8351 33.9094 98.5161 33.7158L99.8122 32.7489C100.149 32.9676 100.539 33.0899 100.94 33.1028C101.027 33.1025 101.111 33.0675 101.173 33.0055C101.234 32.9435 101.269 32.8596 101.269 32.7722C101.268 32.6847 101.233 32.601 101.171 32.5394C101.109 32.4777 101.025 32.4432 100.938 32.4435C100.75 32.434 100.565 32.3909 100.392 32.3161L100.955 31.8966C101.025 31.8443 101.071 31.7663 101.084 31.6798C101.097 31.5932 101.074 31.5052 101.022 31.4351C100.97 31.365 100.892 31.3186 100.805 31.306C100.719 31.2934 100.631 31.3158 100.561 31.3681L99.1111 32.4493C99.0778 32.2431 99.0862 32.0324 99.1358 31.8296C99.161 31.7458 99.1519 31.6555 99.1105 31.5785C99.0691 31.5015 98.9988 31.4441 98.915 31.4189C98.8313 31.3937 98.741 31.4028 98.664 31.4442C98.587 31.4856 98.5295 31.5559 98.5044 31.6397C98.3983 32.0462 98.4112 32.4746 98.5416 32.874L97.3856 33.7362C97.3523 33.5301 97.3607 33.3194 97.4101 33.1166C97.4353 33.0329 97.4262 32.9426 97.3848 32.8656C97.3434 32.7886 97.2731 32.7312 97.1893 32.706C97.1056 32.6808 97.0153 32.6899 96.9383 32.7313C96.8613 32.7727 96.8039 32.843 96.7787 32.9268C96.6728 33.3333 96.6859 33.7616 96.8163 34.1609C96.8163 34.1609 96.0822 34.7088 96.079 34.7109L95.6604 35.0234C95.6271 34.8173 95.6355 34.6066 95.6851 34.4037C95.7103 34.32 95.7013 34.2297 95.6599 34.1526C95.6185 34.0756 95.5482 34.0181 95.4645 33.9929C95.3808 33.9677 95.2904 33.9768 95.2134 34.0181C95.1364 34.0595 95.0789 34.1298 95.0537 34.2135C94.9476 34.6201 94.9604 35.0487 95.0908 35.4482L94.3112 36.03C94.0575 34.308 94.3596 33.0031 95.2335 32.0499L95.2332 32.0498ZM90.6302 37.179C90.0653 37.1828 89.5072 37.0552 89.0001 36.8061C86.5186 35.597 85.2116 31.6334 84.7548 29.9351C84.9493 29.9297 85.1445 29.9269 85.3391 29.9269C86.9226 29.9269 90.7954 30.1337 92.5528 32.0498C93.4267 33.0031 93.7288 34.308 93.4754 36.0298L92.6957 35.4482C92.826 35.0487 92.8388 34.6201 92.7327 34.2135C92.7201 34.1721 92.6994 34.1336 92.672 34.1001C92.6445 34.0667 92.6107 34.039 92.5725 34.0186C92.5343 33.9982 92.4924 33.9856 92.4494 33.9814C92.4063 33.9771 92.3628 33.9815 92.3214 33.9941C92.2799 34.0067 92.2414 34.0273 92.208 34.0548C92.1745 34.0823 92.1468 34.1161 92.1264 34.1543C92.1061 34.1925 92.0934 34.2343 92.0892 34.2774C92.085 34.3205 92.0893 34.364 92.1019 34.4054C92.1513 34.6077 92.1595 34.8179 92.1261 35.0234L91.7075 34.7109L91.7058 34.7098L91.7042 34.7088L90.9701 34.1611C91.1005 33.7617 91.1136 33.3333 91.0077 32.9268C90.9951 32.8853 90.9745 32.8468 90.947 32.8133C90.9195 32.7799 90.8857 32.7521 90.8475 32.7317C90.8094 32.7113 90.7675 32.6987 90.7244 32.6944C90.6813 32.6902 90.6379 32.6945 90.5964 32.7071C90.555 32.7196 90.5164 32.7402 90.483 32.7677C90.4495 32.7952 90.4218 32.829 90.4014 32.8672C90.381 32.9054 90.3683 32.9472 90.3641 32.9903C90.3598 33.0334 90.3641 33.0769 90.3767 33.1183C90.426 33.3206 90.4341 33.5308 90.4006 33.7364L89.2447 32.874C89.3751 32.4746 89.3881 32.0461 89.282 31.6395C89.2694 31.5981 89.2488 31.5595 89.2213 31.5261C89.1938 31.4926 89.16 31.4649 89.1218 31.4445C89.0836 31.4241 89.0418 31.4115 88.9987 31.4072C88.9556 31.403 88.9121 31.4073 88.8707 31.4199C88.8292 31.4325 88.7907 31.4531 88.7572 31.4806C88.7238 31.5081 88.6961 31.5419 88.6757 31.5801C88.6553 31.6183 88.6426 31.6601 88.6384 31.7032C88.6342 31.7463 88.6385 31.7898 88.651 31.8312C88.7006 32.0335 88.7089 32.2437 88.6754 32.4493L87.2258 31.3681C87.1557 31.3158 87.0677 31.2934 86.9812 31.306C86.8946 31.3186 86.8166 31.365 86.7643 31.4351C86.712 31.5052 86.6897 31.5932 86.7023 31.6798C86.7149 31.7663 86.7613 31.8443 86.8314 31.8966L87.3926 32.3153C87.2192 32.3866 87.0355 32.4299 86.8484 32.4435C86.761 32.4432 86.677 32.4777 86.615 32.5394C86.553 32.601 86.518 32.6847 86.5178 32.7722C86.5175 32.8596 86.552 32.9435 86.6136 33.0055C86.6752 33.0675 86.759 33.1025 86.8464 33.1028H86.8484C87.2488 33.0895 87.638 32.9671 87.974 32.7488L89.2703 33.7158C88.9513 33.9093 88.596 34.0353 88.2263 34.0859C88.1395 34.0966 88.0605 34.1412 88.0066 34.2101C87.9528 34.279 87.9285 34.3665 87.9391 34.4533C87.9497 34.54 87.9944 34.6191 88.0633 34.6729C88.1321 34.7268 88.2196 34.7511 88.3064 34.7405C88.4142 34.7273 89.2615 34.6097 89.8191 34.1253L90.9963 35.0035C90.6774 35.197 90.3222 35.323 89.9526 35.3735C89.8665 35.3854 89.7883 35.4304 89.7348 35.4989C89.6812 35.5674 89.6564 35.6541 89.6657 35.7406C89.6901 36.0356 90.0192 36.0295 90.0327 36.028C90.1404 36.0148 90.9877 35.8975 91.5455 35.4132L93.0799 36.5576C92.1851 36.9738 91.3803 37.179 90.6302 37.179ZM94.0315 47.5422C92.8899 46.1966 90.34 42.8267 90.8191 40.0887C90.9981 39.0677 91.5982 38.1982 92.6405 37.4527C92.9302 37.3469 93.2142 37.2264 93.4917 37.0918L93.5264 38.8326C92.7698 39.0068 92.1367 39.6658 92.1063 39.6974C92.0462 39.7608 92.0137 39.8454 92.016 39.9327C92.0182 40.02 92.0551 40.1029 92.1184 40.1631C92.1821 40.2224 92.2665 40.2544 92.3536 40.2523C92.4406 40.2502 92.5234 40.2141 92.5842 40.1517C92.8551 39.8751 93.1807 39.6579 93.5401 39.514L93.5693 40.973C92.8133 41.1469 92.1804 41.8053 92.1502 41.8373C92.0919 41.901 92.0609 41.9851 92.0639 42.0714C92.067 42.1577 92.1038 42.2394 92.1664 42.2989C92.229 42.3583 92.3125 42.3909 92.3988 42.3894C92.4852 42.388 92.5675 42.3527 92.6282 42.2912C92.8981 42.0139 93.2234 41.7967 93.583 41.6537L93.6151 43.2602C93.2337 43.4025 92.8984 43.6462 92.6453 43.9651C92.5937 44.0357 92.5723 44.1239 92.5858 44.2103C92.5992 44.2967 92.6464 44.3742 92.717 44.4258C92.7876 44.4774 92.8758 44.4988 92.9622 44.4854C93.0486 44.4719 93.1261 44.4247 93.1777 44.3541C93.3035 44.2013 93.4567 44.0733 93.6295 43.9767L93.6461 44.8085C93.6478 44.8948 93.6833 44.9769 93.7449 45.0373C93.8065 45.0977 93.8893 45.1316 93.9756 45.1316H93.9823C94.0698 45.1298 94.1529 45.0934 94.2135 45.0303C94.2741 44.9673 94.3071 44.8828 94.3054 44.7953L94.267 42.8684C94.4649 42.9608 94.642 43.0924 94.7877 43.2551C94.8427 43.3222 94.9217 43.3652 95.008 43.375C95.0942 43.3848 95.1809 43.3605 95.2495 43.3073C95.2834 43.2805 95.3118 43.2472 95.3329 43.2094C95.3539 43.1715 95.3674 43.1299 95.3724 43.0869C95.3774 43.0439 95.3738 43.0003 95.3619 42.9587C95.3501 42.917 95.3301 42.8781 95.3032 42.8442C95.025 42.5215 94.6607 42.2846 94.2528 42.1613L94.2241 40.7297C94.4217 40.8221 94.5985 40.9536 94.744 41.116C94.799 41.1833 94.8782 41.2263 94.9645 41.236C95.0508 41.2457 95.1375 41.2213 95.2061 41.168C95.24 41.1411 95.2683 41.1077 95.2893 41.0699C95.3104 41.032 95.3237 40.9904 95.3287 40.9474C95.3336 40.9044 95.33 40.8609 95.3182 40.8192C95.3063 40.7776 95.2863 40.7387 95.2594 40.7048C94.9813 40.3825 94.6174 40.146 94.21 40.0228L94.1813 38.5912C94.3786 38.6837 94.5552 38.815 94.7006 38.9773C94.7556 39.0443 94.8347 39.0869 94.9209 39.096C95.007 39.105 95.0933 39.0798 95.161 39.0258C95.2287 38.9717 95.2724 38.8932 95.2827 38.8072C95.293 38.7212 95.269 38.6346 95.2159 38.5661C94.9379 38.244 94.5742 38.0075 94.1671 37.8841L94.15 37.0226C94.4364 37.166 94.7155 37.29 94.9873 37.3946C96.0718 38.1025 96.7139 38.9526 96.9356 39.9725C97.4227 42.2111 95.7973 45.2906 94.0315 47.5422Z" fill="#0E311A" stroke="#0E311A" stroke-width="0.316984"/>
</g>
<mask id="path-10-outside-7_3460_21954" maskUnits="userSpaceOnUse" x="-0.5" y="86" width="187" height="31" fill="black">
<rect fill="white" x="-0.5" y="86" width="187" height="31"/>
<path d="M7.49286 87.4321V87.8643C5.88214 87.9429 6.11786 89.2786 6.47143 90.025L17.1571 114.225L27.8036 90.025C28.1571 89.2786 28.3929 87.9429 26.7821 87.8643V87.4321H31.2214V87.8643C29.6107 87.9429 28.8643 89.2786 28.5107 90.025L17.3536 115.325H14.4464L3.21071 90.025C2.85714 89.2786 2.11071 87.9429 0.5 87.8643V87.4321H7.49286Z"/>
<path d="M32.4015 102.95H45.8765C45.8765 98 43.8337 94.7393 39.6694 94.7393C35.7408 94.7393 32.9515 97.6857 32.4015 102.95ZM49.2551 103.579H32.3622C32.323 104.011 32.323 104.404 32.323 104.836C32.323 111.318 35.2301 114.932 40.6122 114.932C44.6194 114.932 48.9015 112.85 48.823 107.154H49.2551L50.0801 111.946C47.2515 115.207 43.1265 115.757 40.6908 115.757C33.6587 115.757 28.9837 111.279 28.9837 104.639C28.9837 98.4321 33.0301 94.15 39.3944 94.15C44.9337 94.15 49.2551 97.3714 49.2551 103.579Z"/>
<path d="M69.6821 112.3V96.7821C68.0321 95.6821 66.1071 95.0536 64.3393 95.0536C59.5464 95.0536 55.9321 99.375 55.9321 105.346C55.9321 110.454 58.5643 114.814 63.2 114.814C65.5179 114.814 67.9536 113.714 69.6821 112.3ZM72.5893 87.3929V113.636C72.5893 114.736 73.6107 114.814 74.475 114.854V115.325C71.2536 115.404 69.6821 114.696 69.6821 113.204V113.164C67.6786 114.814 64.9678 115.757 62.375 115.757C56.7178 115.757 52.75 111.239 52.75 105.189C52.75 98.7464 57.2286 94.0321 63.3571 94.0321C65.0857 94.0321 67.4821 94.425 69.6821 95.8V89.0429C69.6821 87.9429 68.7 87.8643 67.8357 87.825V87.3929H72.5893Z"/>
<path d="M94.0304 112.693C94.0304 110.925 94.2268 106.8 93.9911 103.696C92.4982 102.321 89.4732 101.496 87.3125 101.496C83.5018 101.496 80.5161 104.05 80.5161 108.214C80.5161 112.379 83.5018 114.932 87.3125 114.932C89.5125 114.932 92.5375 114.068 94.0304 112.693ZM86.5661 115.757C81.2232 115.757 76.784 112.654 76.784 108.175C76.784 103.657 81.2232 100.632 86.5661 100.632C89.1982 100.632 91.9482 101.379 93.9125 102.714C94.1482 97.1357 90.4161 94.7393 86.7625 94.7393C83.2661 94.7393 79.4161 96.9786 79.4554 102.675H79.0232L78.1982 97.8821C81.0268 94.6214 84.5625 94.1107 86.9197 94.1107C92.1054 94.1107 96.9375 96.7429 96.9375 103.186V113.636C96.9375 114.736 97.9197 114.814 98.8232 114.854V115.325C95.9947 115.404 94.4232 114.657 94.1089 113.518C92.1447 114.932 89.2768 115.757 86.5661 115.757Z"/>
<path d="M106.356 87.4321V87.8643C104.746 87.9429 104.981 89.2786 105.335 90.025L116.021 114.225L126.667 90.025C127.021 89.2786 127.256 87.9429 125.646 87.8643V87.4321H130.085V87.8643C128.474 87.9429 127.728 89.2786 127.374 90.025L116.217 115.325H113.31L102.074 90.025C101.721 89.2786 100.974 87.9429 99.3634 87.8643V87.4321H106.356Z"/>
<path d="M130.948 115.325V114.893C132.559 114.814 132.834 114.421 132.834 113.675V96.1929C132.834 95.4071 132.559 95.0143 130.948 94.9357V94.5036H135.741V113.675C135.741 114.421 135.977 114.814 137.627 114.893V115.325H130.948ZM132.087 88.8464C132.087 87.7464 132.873 87 134.052 87C135.23 87 136.016 87.7464 136.016 88.8464C136.016 89.9857 135.23 90.7321 134.052 90.7321C132.873 90.7321 132.087 89.9857 132.087 88.8464Z"/>
<path d="M156.576 112.3V96.7821C154.926 95.6821 153.001 95.0536 151.233 95.0536C146.44 95.0536 142.826 99.375 142.826 105.346C142.826 110.454 145.458 114.814 150.094 114.814C152.411 114.814 154.847 113.714 156.576 112.3ZM159.483 87.3929V113.636C159.483 114.736 160.504 114.814 161.369 114.854V115.325C158.147 115.404 156.576 114.696 156.576 113.204V113.164C154.572 114.814 151.861 115.757 149.269 115.757C143.611 115.757 139.644 111.239 139.644 105.189C139.644 98.7464 144.122 94.0321 150.251 94.0321C151.979 94.0321 154.376 94.425 156.576 95.8V89.0429C156.576 87.9429 155.594 87.8643 154.729 87.825V87.3929H159.483Z"/>
<path d="M180.924 112.693C180.924 110.925 181.12 106.8 180.885 103.696C179.392 102.321 176.367 101.496 174.206 101.496C170.395 101.496 167.41 104.05 167.41 108.214C167.41 112.379 170.395 114.932 174.206 114.932C176.406 114.932 179.431 114.068 180.924 112.693ZM173.46 115.757C168.117 115.757 163.678 112.654 163.678 108.175C163.678 103.657 168.117 100.632 173.46 100.632C176.092 100.632 178.842 101.379 180.806 102.714C181.042 97.1357 177.31 94.7393 173.656 94.7393C170.16 94.7393 166.31 96.9786 166.349 102.675H165.917L165.092 97.8821C167.92 94.6214 171.456 94.1107 173.813 94.1107C178.999 94.1107 183.831 96.7429 183.831 103.186V113.636C183.831 114.736 184.813 114.814 185.717 114.854V115.325C182.888 115.404 181.317 114.657 181.003 113.518C179.038 114.932 176.17 115.757 173.46 115.757Z"/>
</mask>
<path d="M7.49286 87.4321V87.8643C5.88214 87.9429 6.11786 89.2786 6.47143 90.025L17.1571 114.225L27.8036 90.025C28.1571 89.2786 28.3929 87.9429 26.7821 87.8643V87.4321H31.2214V87.8643C29.6107 87.9429 28.8643 89.2786 28.5107 90.025L17.3536 115.325H14.4464L3.21071 90.025C2.85714 89.2786 2.11071 87.9429 0.5 87.8643V87.4321H7.49286Z" fill="#0E311A"/>
<path d="M32.4015 102.95H45.8765C45.8765 98 43.8337 94.7393 39.6694 94.7393C35.7408 94.7393 32.9515 97.6857 32.4015 102.95ZM49.2551 103.579H32.3622C32.323 104.011 32.323 104.404 32.323 104.836C32.323 111.318 35.2301 114.932 40.6122 114.932C44.6194 114.932 48.9015 112.85 48.823 107.154H49.2551L50.0801 111.946C47.2515 115.207 43.1265 115.757 40.6908 115.757C33.6587 115.757 28.9837 111.279 28.9837 104.639C28.9837 98.4321 33.0301 94.15 39.3944 94.15C44.9337 94.15 49.2551 97.3714 49.2551 103.579Z" fill="#0E311A"/>
<path d="M69.6821 112.3V96.7821C68.0321 95.6821 66.1071 95.0536 64.3393 95.0536C59.5464 95.0536 55.9321 99.375 55.9321 105.346C55.9321 110.454 58.5643 114.814 63.2 114.814C65.5179 114.814 67.9536 113.714 69.6821 112.3ZM72.5893 87.3929V113.636C72.5893 114.736 73.6107 114.814 74.475 114.854V115.325C71.2536 115.404 69.6821 114.696 69.6821 113.204V113.164C67.6786 114.814 64.9678 115.757 62.375 115.757C56.7178 115.757 52.75 111.239 52.75 105.189C52.75 98.7464 57.2286 94.0321 63.3571 94.0321C65.0857 94.0321 67.4821 94.425 69.6821 95.8V89.0429C69.6821 87.9429 68.7 87.8643 67.8357 87.825V87.3929H72.5893Z" fill="#0E311A"/>
<path d="M94.0304 112.693C94.0304 110.925 94.2268 106.8 93.9911 103.696C92.4982 102.321 89.4732 101.496 87.3125 101.496C83.5018 101.496 80.5161 104.05 80.5161 108.214C80.5161 112.379 83.5018 114.932 87.3125 114.932C89.5125 114.932 92.5375 114.068 94.0304 112.693ZM86.5661 115.757C81.2232 115.757 76.784 112.654 76.784 108.175C76.784 103.657 81.2232 100.632 86.5661 100.632C89.1982 100.632 91.9482 101.379 93.9125 102.714C94.1482 97.1357 90.4161 94.7393 86.7625 94.7393C83.2661 94.7393 79.4161 96.9786 79.4554 102.675H79.0232L78.1982 97.8821C81.0268 94.6214 84.5625 94.1107 86.9197 94.1107C92.1054 94.1107 96.9375 96.7429 96.9375 103.186V113.636C96.9375 114.736 97.9197 114.814 98.8232 114.854V115.325C95.9947 115.404 94.4232 114.657 94.1089 113.518C92.1447 114.932 89.2768 115.757 86.5661 115.757Z" fill="#0E311A"/>
<path d="M106.356 87.4321V87.8643C104.746 87.9429 104.981 89.2786 105.335 90.025L116.021 114.225L126.667 90.025C127.021 89.2786 127.256 87.9429 125.646 87.8643V87.4321H130.085V87.8643C128.474 87.9429 127.728 89.2786 127.374 90.025L116.217 115.325H113.31L102.074 90.025C101.721 89.2786 100.974 87.9429 99.3634 87.8643V87.4321H106.356Z" fill="#0E311A"/>
<path d="M130.948 115.325V114.893C132.559 114.814 132.834 114.421 132.834 113.675V96.1929C132.834 95.4071 132.559 95.0143 130.948 94.9357V94.5036H135.741V113.675C135.741 114.421 135.977 114.814 137.627 114.893V115.325H130.948ZM132.087 88.8464C132.087 87.7464 132.873 87 134.052 87C135.23 87 136.016 87.7464 136.016 88.8464C136.016 89.9857 135.23 90.7321 134.052 90.7321C132.873 90.7321 132.087 89.9857 132.087 88.8464Z" fill="#0E311A"/>
<path d="M156.576 112.3V96.7821C154.926 95.6821 153.001 95.0536 151.233 95.0536C146.44 95.0536 142.826 99.375 142.826 105.346C142.826 110.454 145.458 114.814 150.094 114.814C152.411 114.814 154.847 113.714 156.576 112.3ZM159.483 87.3929V113.636C159.483 114.736 160.504 114.814 161.369 114.854V115.325C158.147 115.404 156.576 114.696 156.576 113.204V113.164C154.572 114.814 151.861 115.757 149.269 115.757C143.611 115.757 139.644 111.239 139.644 105.189C139.644 98.7464 144.122 94.0321 150.251 94.0321C151.979 94.0321 154.376 94.425 156.576 95.8V89.0429C156.576 87.9429 155.594 87.8643 154.729 87.825V87.3929H159.483Z" fill="#0E311A"/>
<path d="M180.924 112.693C180.924 110.925 181.12 106.8 180.885 103.696C179.392 102.321 176.367 101.496 174.206 101.496C170.395 101.496 167.41 104.05 167.41 108.214C167.41 112.379 170.395 114.932 174.206 114.932C176.406 114.932 179.431 114.068 180.924 112.693ZM173.46 115.757C168.117 115.757 163.678 112.654 163.678 108.175C163.678 103.657 168.117 100.632 173.46 100.632C176.092 100.632 178.842 101.379 180.806 102.714C181.042 97.1357 177.31 94.7393 173.656 94.7393C170.16 94.7393 166.31 96.9786 166.349 102.675H165.917L165.092 97.8821C167.92 94.6214 171.456 94.1107 173.813 94.1107C178.999 94.1107 183.831 96.7429 183.831 103.186V113.636C183.831 114.736 184.813 114.814 185.717 114.854V115.325C182.888 115.404 181.317 114.657 181.003 113.518C179.038 114.932 176.17 115.757 173.46 115.757Z" fill="#0E311A"/>
<path d="M7.49286 87.4321V87.8643C5.88214 87.9429 6.11786 89.2786 6.47143 90.025L17.1571 114.225L27.8036 90.025C28.1571 89.2786 28.3929 87.9429 26.7821 87.8643V87.4321H31.2214V87.8643C29.6107 87.9429 28.8643 89.2786 28.5107 90.025L17.3536 115.325H14.4464L3.21071 90.025C2.85714 89.2786 2.11071 87.9429 0.5 87.8643V87.4321H7.49286Z" stroke="#0E311A" mask="url(#path-10-outside-7_3460_21954)"/>
<path d="M32.4015 102.95H45.8765C45.8765 98 43.8337 94.7393 39.6694 94.7393C35.7408 94.7393 32.9515 97.6857 32.4015 102.95ZM49.2551 103.579H32.3622C32.323 104.011 32.323 104.404 32.323 104.836C32.323 111.318 35.2301 114.932 40.6122 114.932C44.6194 114.932 48.9015 112.85 48.823 107.154H49.2551L50.0801 111.946C47.2515 115.207 43.1265 115.757 40.6908 115.757C33.6587 115.757 28.9837 111.279 28.9837 104.639C28.9837 98.4321 33.0301 94.15 39.3944 94.15C44.9337 94.15 49.2551 97.3714 49.2551 103.579Z" stroke="#0E311A" mask="url(#path-10-outside-7_3460_21954)"/>
<path d="M69.6821 112.3V96.7821C68.0321 95.6821 66.1071 95.0536 64.3393 95.0536C59.5464 95.0536 55.9321 99.375 55.9321 105.346C55.9321 110.454 58.5643 114.814 63.2 114.814C65.5179 114.814 67.9536 113.714 69.6821 112.3ZM72.5893 87.3929V113.636C72.5893 114.736 73.6107 114.814 74.475 114.854V115.325C71.2536 115.404 69.6821 114.696 69.6821 113.204V113.164C67.6786 114.814 64.9678 115.757 62.375 115.757C56.7178 115.757 52.75 111.239 52.75 105.189C52.75 98.7464 57.2286 94.0321 63.3571 94.0321C65.0857 94.0321 67.4821 94.425 69.6821 95.8V89.0429C69.6821 87.9429 68.7 87.8643 67.8357 87.825V87.3929H72.5893Z" stroke="#0E311A" mask="url(#path-10-outside-7_3460_21954)"/>
<path d="M94.0304 112.693C94.0304 110.925 94.2268 106.8 93.9911 103.696C92.4982 102.321 89.4732 101.496 87.3125 101.496C83.5018 101.496 80.5161 104.05 80.5161 108.214C80.5161 112.379 83.5018 114.932 87.3125 114.932C89.5125 114.932 92.5375 114.068 94.0304 112.693ZM86.5661 115.757C81.2232 115.757 76.784 112.654 76.784 108.175C76.784 103.657 81.2232 100.632 86.5661 100.632C89.1982 100.632 91.9482 101.379 93.9125 102.714C94.1482 97.1357 90.4161 94.7393 86.7625 94.7393C83.2661 94.7393 79.4161 96.9786 79.4554 102.675H79.0232L78.1982 97.8821C81.0268 94.6214 84.5625 94.1107 86.9197 94.1107C92.1054 94.1107 96.9375 96.7429 96.9375 103.186V113.636C96.9375 114.736 97.9197 114.814 98.8232 114.854V115.325C95.9947 115.404 94.4232 114.657 94.1089 113.518C92.1447 114.932 89.2768 115.757 86.5661 115.757Z" stroke="#0E311A" mask="url(#path-10-outside-7_3460_21954)"/>
<path d="M106.356 87.4321V87.8643C104.746 87.9429 104.981 89.2786 105.335 90.025L116.021 114.225L126.667 90.025C127.021 89.2786 127.256 87.9429 125.646 87.8643V87.4321H130.085V87.8643C128.474 87.9429 127.728 89.2786 127.374 90.025L116.217 115.325H113.31L102.074 90.025C101.721 89.2786 100.974 87.9429 99.3634 87.8643V87.4321H106.356Z" stroke="#0E311A" mask="url(#path-10-outside-7_3460_21954)"/>
<path d="M130.948 115.325V114.893C132.559 114.814 132.834 114.421 132.834 113.675V96.1929C132.834 95.4071 132.559 95.0143 130.948 94.9357V94.5036H135.741V113.675C135.741 114.421 135.977 114.814 137.627 114.893V115.325H130.948ZM132.087 88.8464C132.087 87.7464 132.873 87 134.052 87C135.23 87 136.016 87.7464 136.016 88.8464C136.016 89.9857 135.23 90.7321 134.052 90.7321C132.873 90.7321 132.087 89.9857 132.087 88.8464Z" stroke="#0E311A" mask="url(#path-10-outside-7_3460_21954)"/>
<path d="M156.576 112.3V96.7821C154.926 95.6821 153.001 95.0536 151.233 95.0536C146.44 95.0536 142.826 99.375 142.826 105.346C142.826 110.454 145.458 114.814 150.094 114.814C152.411 114.814 154.847 113.714 156.576 112.3ZM159.483 87.3929V113.636C159.483 114.736 160.504 114.814 161.369 114.854V115.325C158.147 115.404 156.576 114.696 156.576 113.204V113.164C154.572 114.814 151.861 115.757 149.269 115.757C143.611 115.757 139.644 111.239 139.644 105.189C139.644 98.7464 144.122 94.0321 150.251 94.0321C151.979 94.0321 154.376 94.425 156.576 95.8V89.0429C156.576 87.9429 155.594 87.8643 154.729 87.825V87.3929H159.483Z" stroke="#0E311A" mask="url(#path-10-outside-7_3460_21954)"/>
<path d="M180.924 112.693C180.924 110.925 181.12 106.8 180.885 103.696C179.392 102.321 176.367 101.496 174.206 101.496C170.395 101.496 167.41 104.05 167.41 108.214C167.41 112.379 170.395 114.932 174.206 114.932C176.406 114.932 179.431 114.068 180.924 112.693ZM173.46 115.757C168.117 115.757 163.678 112.654 163.678 108.175C163.678 103.657 168.117 100.632 173.46 100.632C176.092 100.632 178.842 101.379 180.806 102.714C181.042 97.1357 177.31 94.7393 173.656 94.7393C170.16 94.7393 166.31 96.9786 166.349 102.675H165.917L165.092 97.8821C167.92 94.6214 171.456 94.1107 173.813 94.1107C178.999 94.1107 183.831 96.7429 183.831 103.186V113.636C183.831 114.736 184.813 114.814 185.717 114.854V115.325C182.888 115.404 181.317 114.657 181.003 113.518C179.038 114.932 176.17 115.757 173.46 115.757Z" stroke="#0E311A" mask="url(#path-10-outside-7_3460_21954)"/>
<defs>
<clipPath id="clip0_3460_21954">
<rect width="19.6806" height="19.6806" fill="white" transform="translate(83.4199 1.37793)"/>
</clipPath>
</defs>
</svg>
