<svg width="235" height="61" viewBox="0 0 235 61" fill="none" xmlns="http://www.w3.org/2000/svg" xmlns:xlink="http://www.w3.org/1999/xlink">
<g id="Repeat group 3_inner" data-figma-trr="r6u2.5-0f">
<g clip-path="url(#clip0_3547_1179)">
<path d="M34.4882 6.98547C34.2062 6.77742 33.9407 6.58928 33.6892 6.41097C32.6926 5.70578 31.9703 5.19269 31.3142 4.21398C31.1496 3.70229 30.9922 3.13466 30.8094 2.47312L30.4476 1.17188L29.4578 1.64514L29.5027 1.86315C29.5055 1.87707 29.578 2.24005 29.6474 2.82144C29.4695 3.212 29.3188 3.56136 29.1835 3.87625C28.9657 4.38346 28.7869 4.79866 28.584 5.17021C28.1644 5.44197 27.6974 5.68167 27.2028 5.93399C26.5789 6.25257 25.934 6.58213 25.3918 6.98292C23.2753 8.44283 21.9804 10.5421 22.0905 12.3339C22.0861 12.5617 22.1002 14.0929 23.1443 15.2178C23.8694 15.9989 24.9086 16.3948 26.2332 16.3948C26.4595 16.3948 26.6886 16.3644 26.9291 16.3088C27.1843 16.3665 27.4453 16.3956 27.707 16.3955C27.7167 16.3955 27.7267 16.3951 27.7364 16.3951C27.7287 16.4298 27.7264 16.4659 27.7327 16.5032C27.7438 16.5695 27.778 16.6297 27.8292 16.6731C27.8805 16.7166 27.9455 16.7405 28.0127 16.7406C28.0285 16.7407 28.0443 16.7393 28.0598 16.7365L29.0278 16.5748L28.5638 17.0396C28.5374 17.066 28.5165 17.0974 28.5022 17.1319C28.4879 17.1663 28.4806 17.2033 28.4806 17.2407C28.4806 17.278 28.488 17.3149 28.5023 17.3494C28.5166 17.3839 28.5376 17.4152 28.5641 17.4415C28.5905 17.4679 28.6218 17.4888 28.6563 17.5031C28.6908 17.5173 28.7278 17.5246 28.7651 17.5245C28.8025 17.5245 28.8395 17.5172 28.8741 17.5029C28.9086 17.4886 28.94 17.4676 28.9664 17.4412L29.6085 16.7979V17.6172C29.6085 17.774 29.7358 17.9014 29.8928 17.9014C30.0496 17.9014 30.177 17.774 30.177 17.6171V16.7979L30.8192 17.4412C30.8455 17.4677 30.8769 17.4887 30.9114 17.503C30.946 17.5173 30.9831 17.5246 31.0204 17.5245C31.0577 17.5245 31.0947 17.5173 31.1292 17.503C31.1636 17.4888 31.195 17.4679 31.2214 17.4415C31.3325 17.3306 31.3328 17.1506 31.2217 17.0396L30.7566 16.5737L31.7166 16.7661C31.735 16.7698 31.7537 16.7717 31.7725 16.7718C31.8381 16.7718 31.9018 16.749 31.9525 16.7073C32.0033 16.6656 32.038 16.6076 32.0509 16.5432C32.0593 16.5003 32.056 16.4586 32.0456 16.4188C32.2873 16.4051 32.5277 16.352 32.7623 16.261C33.0549 16.3435 33.3491 16.3898 33.6393 16.3947C33.6616 16.3949 33.6838 16.3952 33.7061 16.3952C34.6273 16.3952 35.3914 16.0802 35.9779 15.4588C37.0275 14.3462 37.1345 12.6262 37.1441 12.3447H37.145C37.2099 11.3301 37.0827 8.77729 34.4882 6.9854L34.4882 6.98547ZM30.7875 4.43172V4.43221C30.7886 4.43594 30.7898 4.43937 30.7912 4.44306C30.8157 4.51867 30.8408 4.59411 30.8665 4.66937C30.8693 4.67754 30.8725 4.68584 30.8753 4.69401C30.9154 4.81 30.9566 4.924 30.9987 5.03569C31.018 5.08712 31.0376 5.13829 31.0578 5.18926C31.0746 5.23165 31.0916 5.27398 31.1087 5.31623C31.1361 5.38302 31.1643 5.44944 31.1934 5.51549C31.2123 5.55879 31.2317 5.60192 31.2514 5.64488C31.2811 5.70992 31.3116 5.77456 31.343 5.83877C31.3871 5.92852 31.433 6.01741 31.4805 6.1054C31.5035 6.14804 31.526 6.19068 31.5498 6.23306C31.5922 6.30853 31.636 6.3832 31.6812 6.45705C31.7104 6.50531 31.7417 6.55367 31.7727 6.60167C31.7968 6.63918 31.821 6.67695 31.8463 6.71472C31.8788 6.76373 31.912 6.81252 31.9462 6.86114C31.9743 6.90149 32.0041 6.94217 32.0333 6.98279C32.0817 7.04941 32.1315 7.1159 32.1829 7.18266C32.2275 7.24086 32.2729 7.29848 32.319 7.35551C32.3495 7.39302 32.3815 7.43079 32.4132 7.46856C32.4614 7.52627 32.5112 7.58433 32.5622 7.64253C32.673 7.76954 32.7868 7.89398 32.9034 8.01574C33.0313 8.14082 33.1501 8.2677 33.2622 8.39559C33.2819 8.41807 33.2989 8.44051 33.3179 8.46299C33.4121 8.5735 33.5024 8.6843 33.5852 8.79638C33.5951 8.80977 33.6042 8.82304 33.6139 8.8367C34.7779 10.4386 34.8279 12.1736 34.4177 13.4647C34.414 13.4764 34.4103 13.4883 34.4064 13.4999C34.3758 13.5937 34.3423 13.6865 34.3058 13.7782C34.2995 13.7938 34.2929 13.8094 34.2866 13.8247C34.2552 13.9013 34.2215 13.977 34.1858 14.0517C34.1645 14.0958 34.1426 14.1397 34.1201 14.1833C34.1076 14.2071 34.0954 14.2313 34.0825 14.2549C34.0567 14.3022 34.0303 14.349 34.003 14.395C33.9919 14.414 33.9808 14.4328 33.9695 14.4516C33.9379 14.5029 33.9053 14.5536 33.8717 14.6036C33.8651 14.6133 33.8585 14.6232 33.8518 14.6329C33.5143 15.1227 33.0925 15.4991 32.6281 15.7C32.6221 15.7025 32.6175 15.7074 32.6119 15.7102C32.3148 15.8345 32.0084 15.8831 31.7076 15.8413C31.6821 15.8378 31.6564 15.8361 31.6307 15.8362C31.5931 15.8362 31.5596 15.8396 31.5322 15.8422C31.5183 15.8436 31.5041 15.8455 31.4902 15.8455H30.5579C30.1483 15.8455 29.7423 15.7116 29.3773 15.4792C29.3128 15.4379 29.2511 15.3928 29.1902 15.3464C29.1641 15.3262 29.1377 15.3063 29.1121 15.2853C29.0621 15.2439 29.0135 15.2008 28.9664 15.1562C28.927 15.1187 28.8888 15.08 28.8517 15.0402C28.8179 15.0044 28.7836 14.9686 28.7517 14.9307C28.6904 14.8583 28.6325 14.783 28.5784 14.7051C28.5698 14.6932 28.5605 14.6821 28.5522 14.6698C28.4868 14.5722 28.4271 14.4708 28.3734 14.3663C28.333 14.2878 28.2946 14.2081 28.2608 14.1257C28.2594 14.1221 28.2582 14.1183 28.2568 14.1147C28.2213 14.0269 28.1898 13.9374 28.1625 13.8467C28.1597 13.837 28.1568 13.8273 28.154 13.8176C28.1264 13.7241 28.1033 13.6294 28.0846 13.5337C28.0846 13.5333 28.0846 13.5331 28.0843 13.5328C28.0602 13.4056 28.044 13.2771 28.0358 13.1479C28.0346 13.1291 28.0335 13.1104 28.0326 13.0917C28.0302 13.0457 28.0289 12.9996 28.0289 12.9535C28.0289 12.9015 28.0295 12.8492 28.0321 12.7969C28.0332 12.7724 28.0351 12.7474 28.0369 12.7225C28.0405 12.6686 28.0453 12.6146 28.052 12.5606C28.0536 12.5471 28.055 12.5334 28.0567 12.5195C28.1289 11.9754 28.3372 11.4248 28.6784 10.8953C28.6796 10.8938 28.6801 10.8921 28.6812 10.8907C28.7311 10.8134 28.7831 10.7375 28.8373 10.6631C28.9356 10.5278 29.0264 10.3874 29.113 10.2449C29.1264 10.223 29.1401 10.2017 29.1531 10.1796C29.2477 10.0192 29.3357 9.85499 29.4168 9.68739C29.4909 9.53544 29.5597 9.38099 29.6232 9.22432C29.6234 9.22357 29.6237 9.22269 29.6243 9.22177C30.5994 6.80677 30.3739 3.89399 30.1869 2.52455L30.1531 2.23433L30.2611 2.62424C30.4486 3.30326 30.6124 3.89308 30.7875 4.43172H30.7875ZM23.5844 14.8559C22.6126 13.8343 22.6578 12.3591 22.6583 12.3477C22.6592 12.3346 22.6595 12.3213 22.6587 12.3082C22.557 10.734 23.785 8.78193 25.7224 7.44533C26.2343 7.06702 26.8583 6.74844 27.4617 6.44032C27.5441 6.3982 27.6268 6.35582 27.7098 6.31321C27.4853 6.53377 27.2244 6.75125 26.9108 6.98292C24.3127 8.77517 24.1851 11.3298 24.2507 12.3448H24.2516C24.2621 12.6593 24.3977 14.7644 25.8099 15.8105C24.8668 15.7383 24.1195 15.4181 23.5844 14.8559ZM26.8287 15.6911C26.7909 15.6789 26.7521 15.6675 26.7158 15.6535C26.6489 15.6279 26.5832 15.5991 26.5191 15.5673C26.5046 15.5604 26.4907 15.5525 26.4764 15.5453C26.266 15.4358 26.0734 15.2948 25.9054 15.1274C24.881 14.1086 24.8354 12.3536 24.8349 12.3481L24.8363 12.3283L24.8351 12.3084C24.7757 11.3901 24.892 9.07817 27.2581 7.44559C28.7399 6.35046 29.083 5.55133 29.7058 4.1005C29.7198 4.06756 29.7342 4.03427 29.7488 4.00068C29.8264 5.45432 29.7527 7.40527 29.0745 9.05954C29.0675 9.07692 29.0606 9.0945 29.0532 9.11189C29.0187 9.1941 28.9818 9.275 28.9443 9.35541C28.9233 9.40046 28.9017 9.44523 28.8795 9.48971C28.8481 9.55347 28.8156 9.61666 28.7819 9.67922C28.7468 9.74368 28.7105 9.80747 28.673 9.87057C28.6464 9.91598 28.6204 9.96206 28.5927 10.007C28.5241 10.1164 28.453 10.2244 28.3769 10.329C28.3154 10.4139 28.256 10.5005 28.199 10.5885C28.1942 10.5959 28.1899 10.6036 28.1853 10.611C28.1343 10.6906 28.0854 10.7715 28.0387 10.8538C28.036 10.8582 28.0339 10.8631 28.0313 10.8676C27.9844 10.951 27.9399 11.0358 27.8979 11.1218C27.8963 11.1255 27.8945 11.1292 27.8928 11.1326C27.8507 11.2193 27.8124 11.3048 27.7775 11.3896C27.7754 11.3944 27.7735 11.3995 27.7714 11.4044C27.7374 11.4874 27.706 11.5714 27.6771 11.6563C27.6748 11.6633 27.6722 11.6702 27.67 11.6772C27.6423 11.7599 27.6171 11.8435 27.5944 11.9277C27.5926 11.9339 27.5907 11.9403 27.5889 11.9468C27.5665 12.0319 27.5468 12.1177 27.5298 12.204C27.5245 12.2318 27.5208 12.2601 27.5159 12.2879C27.5076 12.3356 27.4997 12.3831 27.4934 12.4297C27.4864 12.4811 27.4809 12.5323 27.4761 12.5837C27.4747 12.5994 27.4733 12.615 27.4721 12.6303C27.4349 13.0727 27.4752 13.5106 27.5949 13.9342C27.5952 13.9351 27.5955 13.936 27.5958 13.9368C27.6202 14.0228 27.6476 14.1078 27.6781 14.1918C27.6864 14.2145 27.695 14.237 27.7038 14.2595C27.7269 14.3194 27.7516 14.3788 27.778 14.4374C27.7946 14.4747 27.8118 14.5118 27.8296 14.5486C27.8391 14.5678 27.847 14.5877 27.8567 14.6068C27.8732 14.6394 27.8917 14.6705 27.9093 14.7022C27.9241 14.7296 27.9385 14.7571 27.9542 14.7838C27.9971 14.8581 28.0427 14.9309 28.0909 15.0019C28.1006 15.0158 28.1111 15.0291 28.121 15.0431C28.1631 15.103 28.207 15.1616 28.2526 15.2188C28.2686 15.2384 28.2848 15.2577 28.301 15.2771C28.3477 15.3331 28.3961 15.3876 28.4463 15.4405C28.4564 15.4513 28.4664 15.4624 28.4769 15.4729C28.5417 15.5394 28.608 15.604 28.6768 15.6642C28.3874 15.766 28.0821 15.8201 27.7646 15.8251C27.4245 15.8314 27.1132 15.7843 26.8287 15.6911ZM36.5767 12.3362C36.5767 12.3533 36.5306 14.1095 35.5065 15.1277C35.0277 15.6035 34.4084 15.8361 33.6477 15.8265C33.6053 15.8257 33.5629 15.8239 33.5206 15.8212C33.9729 15.4649 34.3742 14.9627 34.6781 14.3432C34.6957 14.3073 34.711 14.2682 34.7281 14.2311C34.7324 14.2218 34.7364 14.2124 34.7407 14.203C34.7889 14.0963 34.8335 13.9879 34.8743 13.8781C34.8896 13.8378 34.9041 13.797 34.9186 13.7558C34.9431 13.6835 34.9662 13.6108 34.9879 13.5375C35.0103 13.4637 35.0321 13.39 35.0513 13.3147C35.0582 13.2874 35.0638 13.2589 35.0703 13.2314C35.0923 13.1402 35.1159 13.0497 35.1331 12.9568C35.2673 12.2322 35.2542 11.5028 35.1047 10.7953C35.0907 10.7271 35.072 10.6586 35.0552 10.59C35.0416 10.5358 35.0288 10.4816 35.0135 10.4278C34.9876 10.334 34.958 10.2399 34.9267 10.1459C34.9207 10.1279 34.9146 10.1103 34.9083 10.0926C34.7979 9.77202 34.6548 9.45089 34.4759 9.13192C34.4738 9.12822 34.4717 9.12427 34.4697 9.12058C34.4113 9.01656 34.3499 8.91427 34.2855 8.81386C34.2745 8.79651 34.2623 8.77965 34.2512 8.76243C34.1586 8.62151 34.0606 8.4842 33.9574 8.35079C33.8986 8.27433 33.8386 8.19839 33.7761 8.1237C33.7369 8.07727 33.6971 8.03093 33.6561 7.98499C33.5451 7.85926 33.4302 7.73568 33.3079 7.61599C33.2245 7.529 33.1425 7.44058 33.0621 7.35077C33.0334 7.31898 33.0064 7.28745 32.9785 7.25556C32.899 7.1653 32.8213 7.07337 32.7457 6.97985C32.707 6.93212 32.6689 6.88391 32.6315 6.83523C32.6021 6.79706 32.5722 6.75903 32.5441 6.72126C32.5043 6.66756 32.4652 6.61327 32.427 6.5584C32.3933 6.5106 32.3602 6.46243 32.3275 6.41392C32.2875 6.35392 32.2479 6.29433 32.2105 6.23433C32.1874 6.19758 32.1658 6.16095 32.1438 6.12429C32.1146 6.07563 32.0859 6.02666 32.0577 5.97738C32.0364 5.94013 32.0157 5.90259 31.9952 5.86507C31.9864 5.84913 31.9784 5.83289 31.9699 5.81695C32.3903 6.18849 32.8485 6.51282 33.3608 6.87558C33.6107 7.05235 33.8744 7.23883 34.1541 7.44586C34.1567 7.44749 34.1593 7.44945 34.1616 7.45121C36.5201 9.07754 36.6363 11.3894 36.5767 12.3362Z" fill="#0E311A" stroke="#0E311A" stroke-width="0.269454"/>
</g>
</g>
<use xlink:href="#Repeat%20group%203_inner" transform="translate(41.5931 -11.1448) rotate(60)"/>
<use xlink:href="#Repeat%20group%203_inner" transform="translate(72.0414 19.3034) rotate(120)"/>
<use xlink:href="#Repeat%20group%203_inner" transform="translate(60.8966 60.8966) rotate(-180)"/>
<use xlink:href="#Repeat%20group%203_inner" transform="translate(19.3034 72.0414) rotate(-120)"/>
<use xlink:href="#Repeat%20group%203_inner" transform="translate(-11.1448 41.5931) rotate(-60)"/>
<path d="M41.1731 30.7327C41.1731 24.9679 36.4996 20.2946 30.7347 20.2946C24.9699 20.2946 20.2966 24.9679 20.2965 30.7327C20.2965 36.4976 24.9698 41.1711 30.7347 41.1712V42.0556L30.4426 42.0519C24.3243 41.8969 19.4121 36.8884 19.4121 30.7327C19.4122 24.4795 24.4814 19.4102 30.7347 19.4102C36.988 19.4102 42.0575 24.4794 42.0575 30.7327L42.0538 31.0251C41.8988 37.1434 36.8903 42.0556 30.7347 42.0556V41.1712C36.4996 41.1712 41.1731 36.4976 41.1731 30.7327Z" fill="#0E311A"/>
<mask id="path-3-inside-1_3547_1179" fill="white">
<path d="M50.3324 45.0304C48.3687 47.7227 45.8715 49.9816 42.9964 51.6663C40.1214 53.3511 36.9301 54.4255 33.6215 54.8227L33.5177 53.9578C36.7075 53.5749 39.7842 52.5391 42.5561 50.9148C45.3279 49.2906 47.7355 47.1128 49.6287 44.5171L50.3324 45.0304Z"/>
</mask>
<path d="M50.3324 45.0304C48.3687 47.7227 45.8715 49.9816 42.9964 51.6663C40.1214 53.3511 36.9301 54.4255 33.6215 54.8227L33.5177 53.9578C36.7075 53.5749 39.7842 52.5391 42.5561 50.9148C45.3279 49.2906 47.7355 47.1128 49.6287 44.5171L50.3324 45.0304Z" stroke="#0E311A" stroke-width="1.76882" mask="url(#path-3-inside-1_3547_1179)"/>
<mask id="path-4-inside-2_3547_1179" fill="white">
<path d="M52.909 20.8955C54.2166 23.8437 54.9233 27.023 54.9878 30.2475C55.0523 33.472 54.4733 36.677 53.2846 39.6751L52.4749 39.3541C53.6209 36.4636 54.1791 33.3737 54.117 30.2649C54.0548 27.1561 53.3734 24.091 52.1128 21.2486L52.909 20.8955Z"/>
</mask>
<path d="M52.909 20.8955C54.2166 23.8437 54.9233 27.023 54.9878 30.2475C55.0523 33.472 54.4733 36.677 53.2846 39.6751L52.4749 39.3541C53.6209 36.4636 54.1791 33.3737 54.117 30.2649C54.0548 27.1561 53.3734 24.091 52.1128 21.2486L52.909 20.8955Z" stroke="#0E311A" stroke-width="1.76882" mask="url(#path-4-inside-2_3547_1179)"/>
<mask id="path-5-inside-3_3547_1179" fill="white">
<path d="M34.4188 6.75182C39.8925 7.59387 44.9135 10.2831 48.6476 14.373L48.0044 14.9603C44.4043 11.0173 39.5636 8.42455 34.2864 7.61273L34.4188 6.75182Z"/>
</mask>
<path d="M34.4188 6.75182C39.8925 7.59387 44.9135 10.2831 48.6476 14.373L48.0044 14.9603C44.4043 11.0173 39.5636 8.42455 34.2864 7.61273L34.4188 6.75182Z" stroke="#0E311A" stroke-width="1.76882" mask="url(#path-5-inside-3_3547_1179)"/>
<mask id="path-6-inside-4_3547_1179" fill="white">
<path d="M12.2892 14.9644C15.5954 11.0979 20.0334 8.36844 24.9756 7.16193L25.1823 8.00885C20.4177 9.17201 16.1392 11.8034 12.9518 15.531L12.2892 14.9644Z"/>
</mask>
<path d="M12.2892 14.9644C15.5954 11.0979 20.0334 8.36844 24.9756 7.16193L25.1823 8.00885C20.4177 9.17201 16.1392 11.8034 12.9518 15.531L12.2892 14.9644Z" stroke="#0E311A" stroke-width="1.76882" mask="url(#path-6-inside-4_3547_1179)"/>
<mask id="path-7-inside-5_3547_1179" fill="white">
<path d="M7.93226 39.0372C6.12486 34.0756 5.98549 28.6597 7.53529 23.6117L8.36798 23.8673C6.87381 28.7342 7.00818 33.9556 8.75069 38.7391L7.93226 39.0372Z"/>
</mask>
<path d="M7.93226 39.0372C6.12486 34.0756 5.98549 28.6597 7.53529 23.6117L8.36798 23.8673C6.87381 28.7342 7.00818 33.9556 8.75069 38.7391L7.93226 39.0372Z" stroke="#0E311A" stroke-width="1.76882" mask="url(#path-7-inside-5_3547_1179)"/>
<mask id="path-8-inside-6_3547_1179" fill="white">
<path d="M27.4768 54.7766C21.5777 53.9785 16.178 51.0396 12.3048 46.5192L12.9663 45.9524C16.7004 50.3106 21.9063 53.1439 27.5936 53.9134L27.4768 54.7766Z"/>
</mask>
<path d="M27.4768 54.7766C21.5777 53.9785 16.178 51.0396 12.3048 46.5192L12.9663 45.9524C16.7004 50.3106 21.9063 53.1439 27.5936 53.9134L27.4768 54.7766Z" stroke="#0E311A" stroke-width="1.76882" mask="url(#path-8-inside-6_3547_1179)"/>
<g id="Repeat group 4_inner" data-figma-trr="r1u2.5-0f">
<path d="M33.1979 32.1265C33.385 32.1518 33.5735 32.1648 33.7623 32.1654C34.3274 32.1674 34.8854 32.0396 35.3934 31.7919C37.8388 30.6003 39.0006 26.8181 39.3867 25.2472C39.3966 25.2071 39.3974 25.1652 39.3892 25.1247C39.381 25.0842 39.3639 25.046 39.3392 25.0128C39.3145 24.9797 39.2827 24.9524 39.2462 24.933C39.2097 24.9136 39.1694 24.9025 39.1281 24.9005C38.8414 24.8869 38.5494 24.8799 38.2596 24.8799C36.4956 24.8799 33.2998 25.138 31.7148 26.8663C31.4002 27.2082 31.1537 27.607 30.9884 28.0412C30.8232 27.607 30.5767 27.2082 30.2621 26.8663C28.6771 25.138 25.4811 24.8799 23.7172 24.8799C23.4274 24.8799 23.1355 24.8869 22.8488 24.9003C22.8075 24.9023 22.7671 24.9134 22.7306 24.9329C22.6941 24.9523 22.6623 24.9796 22.6376 25.0127C22.6129 25.0459 22.5958 25.0841 22.5876 25.1247C22.5794 25.1652 22.5803 25.2071 22.5902 25.2472C22.9762 26.8181 24.1381 30.6004 26.5835 31.7919C27.0915 32.0396 27.6495 32.1673 28.2146 32.1654H28.2149C28.3933 32.1645 28.5716 32.1526 28.7486 32.1297C28.2681 32.645 27.9468 33.2882 27.8233 33.9819C27.3382 36.7532 30.0591 40.0833 30.9045 41.0378C30.9308 41.0675 30.9631 41.0913 30.9993 41.1075C31.0354 41.1238 31.0746 41.1322 31.1143 41.1322H31.12C31.1606 41.1314 31.2005 41.1218 31.2369 41.104C31.2734 41.0863 31.3056 41.0608 31.3313 41.0294C32.1373 40.0431 34.7205 36.6111 34.1222 33.8607C33.9789 33.2088 33.6592 32.6089 33.1979 32.1265ZM32.1275 27.2449C33.6217 25.6161 36.9138 25.4403 38.2597 25.4403C38.4253 25.4403 38.5913 25.4427 38.7565 25.4473C38.3683 26.8908 37.2574 30.2603 35.1481 31.2881C34.1459 31.7766 33.0311 31.7067 31.679 31.0774L32.9841 30.1039C33.2327 30.3087 33.5238 30.4556 33.8363 30.534C34.0635 30.5962 34.5347 30.7656 34.5818 30.3827C34.5908 30.309 34.5702 30.2348 34.5245 30.1762C34.4789 30.1176 34.4119 30.0795 34.3383 30.0703C34.024 30.0274 33.722 29.9203 33.451 29.7557L34.4516 29.0092C34.9256 29.4212 35.6459 29.5209 35.7374 29.5321C35.8108 29.5406 35.8846 29.5197 35.9427 29.4739C36.0008 29.4282 36.0385 29.3613 36.0475 29.2879C36.0565 29.2145 36.0362 29.1406 35.9909 29.0821C35.9456 29.0237 35.8791 28.9855 35.8057 28.9759C35.4914 28.9329 35.1893 28.8257 34.9182 28.6611L36.02 27.8392C36.3061 28.0251 36.6376 28.1291 36.9786 28.14C37.0529 28.1398 37.1241 28.1101 37.1765 28.0574C37.2289 28.0046 37.2582 27.9333 37.2579 27.859C37.2577 27.7847 37.228 27.7135 37.1753 27.6611C37.1226 27.6087 37.0512 27.5794 36.9769 27.5796C36.8171 27.5715 36.66 27.5349 36.5131 27.4713L36.9913 27.1147C37.0509 27.0703 37.0904 27.004 37.1011 26.9304C37.1118 26.8568 37.0928 26.782 37.0483 26.7224C37.0039 26.6628 36.9376 26.6234 36.864 26.6127C36.7904 26.602 36.7156 26.6209 36.656 26.6654L35.4239 27.5845C35.3957 27.4093 35.4028 27.2301 35.445 27.0577C35.4664 26.9865 35.4586 26.9098 35.4234 26.8443C35.3882 26.7788 35.3285 26.73 35.2573 26.7086C35.1861 26.6872 35.1093 26.695 35.0439 26.7302C34.9784 26.7654 34.9296 26.8251 34.9082 26.8963C34.8181 27.2419 34.829 27.6061 34.9399 27.9456L33.9572 28.6785C33.9289 28.5033 33.936 28.3242 33.978 28.1518C33.9994 28.0806 33.9917 28.0038 33.9565 27.9384C33.9213 27.8729 33.8615 27.8241 33.7904 27.8027C33.7192 27.7813 33.6424 27.7891 33.577 27.8243C33.5115 27.8595 33.4627 27.9192 33.4413 27.9904C33.3513 28.3359 33.3624 28.7001 33.4732 29.0395C33.4732 29.0395 32.8492 29.5052 32.8465 29.507L32.4907 29.7727C32.4624 29.5974 32.4695 29.4183 32.5117 29.2459C32.5331 29.1747 32.5254 29.0979 32.4902 29.0324C32.4551 28.9669 32.3953 28.9181 32.3242 28.8967C32.253 28.8752 32.1762 28.8829 32.1107 28.9181C32.0452 28.9533 31.9964 29.013 31.9749 29.0842C31.8847 29.4298 31.8957 29.7941 32.0065 30.1337L31.3438 30.6283C31.1281 29.1645 31.3849 28.0553 32.1278 27.245L32.1275 27.2449ZM28.2147 31.605C27.7345 31.6083 27.2601 31.4998 26.8291 31.2881C24.7196 30.2603 23.6086 26.891 23.2204 25.4473C23.3857 25.4427 23.5516 25.4403 23.717 25.4403C25.063 25.4403 28.3551 25.6161 29.8491 27.2449C30.5919 28.0553 30.8488 29.1645 30.6333 30.6282L29.9706 30.1337C30.0813 29.7941 30.0922 29.4298 30.002 29.0842C29.9912 29.049 29.9737 29.0162 29.9503 28.9878C29.927 28.9594 29.8982 28.9358 29.8658 28.9185C29.8333 28.9012 29.7977 28.8904 29.7611 28.8869C29.7245 28.8833 29.6875 28.8869 29.6523 28.8976C29.6171 28.9084 29.5844 28.9259 29.5559 28.9493C29.5275 28.9726 29.5039 29.0014 29.4866 29.0338C29.4693 29.0663 29.4585 29.1019 29.455 29.1385C29.4514 29.1751 29.4551 29.2121 29.4658 29.2473C29.5078 29.4193 29.5148 29.5979 29.4864 29.7727L29.1305 29.507L29.1291 29.5061L29.1277 29.5052L28.5036 29.0396C28.6145 28.7002 28.6256 28.336 28.5356 27.9904C28.5249 27.9552 28.5074 27.9224 28.484 27.894C28.4607 27.8655 28.4319 27.842 28.3995 27.8246C28.367 27.8073 28.3315 27.7965 28.2948 27.7929C28.2582 27.7893 28.2212 27.7929 28.186 27.8036C28.1508 27.8143 28.118 27.8318 28.0896 27.8552C28.0612 27.8785 28.0376 27.9073 28.0202 27.9397C28.0029 27.9722 27.9921 28.0077 27.9885 28.0444C27.9849 28.081 27.9886 28.118 27.9993 28.1532C28.0412 28.3252 28.0481 28.5039 28.0196 28.6786L27.037 27.9456C27.1479 27.606 27.1589 27.2418 27.0687 26.8962C27.058 26.8609 27.0404 26.8282 27.0171 26.7997C26.9937 26.7713 26.965 26.7477 26.9325 26.7304C26.9001 26.7131 26.8645 26.7023 26.8279 26.6987C26.7912 26.6951 26.7543 26.6988 26.719 26.7095C26.6838 26.7202 26.6511 26.7377 26.6226 26.7611C26.5942 26.7844 26.5706 26.8132 26.5533 26.8456C26.5359 26.8781 26.5252 26.9136 26.5216 26.9503C26.518 26.9869 26.5216 27.0239 26.5323 27.0591C26.5745 27.2311 26.5815 27.4098 26.5531 27.5845L25.3208 26.6654C25.2613 26.6209 25.1865 26.602 25.1129 26.6127C25.0393 26.6234 24.973 26.6628 24.9285 26.7224C24.8841 26.782 24.8651 26.8568 24.8758 26.9304C24.8865 27.004 24.926 27.0703 24.9856 27.1147L25.4626 27.4706C25.3152 27.5312 25.159 27.568 25 27.5796C24.9257 27.5794 24.8543 27.6087 24.8016 27.6611C24.7489 27.7135 24.7192 27.7847 24.7189 27.859C24.7187 27.9333 24.748 28.0046 24.8004 28.0574C24.8528 28.1101 24.924 28.1398 24.9983 28.14H25C25.3404 28.1287 25.6712 28.0247 25.9568 27.8391L27.0587 28.6611C26.7876 28.8256 26.4855 28.9327 26.1713 28.9758C26.0975 28.9848 26.0303 29.0228 25.9846 29.0813C25.9388 29.1399 25.9181 29.2142 25.9272 29.288C25.9362 29.3618 25.9742 29.4289 26.0327 29.4747C26.0913 29.5205 26.1656 29.5412 26.2394 29.5321C26.331 29.5209 27.0513 29.421 27.5253 29.0092L28.5259 29.7557C28.2549 29.9203 27.9529 30.0273 27.6388 30.0703C27.5655 30.0804 27.4991 30.1186 27.4536 30.1768C27.408 30.2351 27.387 30.3088 27.3948 30.3823C27.4156 30.6331 27.6954 30.6279 27.7069 30.6266C27.7984 30.6154 28.5186 30.5157 28.9928 30.104L30.2972 31.0768C29.5365 31.4306 28.8524 31.605 28.2147 31.605ZM31.106 40.4143C30.1356 39.2705 27.968 36.4059 28.3753 34.0784C28.5275 33.2105 29.0376 32.4714 29.9236 31.8377C30.1698 31.7477 30.4113 31.6453 30.6471 31.5309L30.6767 33.0107C30.0335 33.1588 29.4953 33.7189 29.4695 33.7458C29.4184 33.7997 29.3908 33.8716 29.3927 33.9458C29.3946 34.0201 29.426 34.0905 29.4798 34.1416C29.534 34.1921 29.6057 34.2193 29.6797 34.2175C29.7537 34.2157 29.8241 34.185 29.8757 34.132C30.106 33.8968 30.3828 33.7122 30.6883 33.5899L30.7131 34.8301C30.0705 34.9779 29.5325 35.5376 29.5068 35.5648C29.4572 35.619 29.4309 35.6904 29.4335 35.7638C29.4361 35.8372 29.4673 35.9066 29.5206 35.9572C29.5738 36.0077 29.6448 36.0354 29.7182 36.0342C29.7916 36.033 29.8616 36.003 29.9131 35.9507C30.1425 35.715 30.4191 35.5303 30.7248 35.4087L30.7521 36.7744C30.4278 36.8953 30.1428 37.1025 29.9277 37.3736C29.8838 37.4336 29.8656 37.5086 29.8771 37.582C29.8885 37.6555 29.9286 37.7214 29.9886 37.7652C30.0487 37.809 30.1236 37.8273 30.1971 37.8158C30.2705 37.8044 30.3364 37.7643 30.3802 37.7043C30.4872 37.5744 30.6174 37.4656 30.7643 37.3834L30.7784 38.0905C30.7799 38.1638 30.81 38.2337 30.8624 38.285C30.9148 38.3363 30.9852 38.3651 31.0585 38.3651H31.0642C31.1385 38.3636 31.2092 38.3327 31.2607 38.2791C31.3122 38.2255 31.3403 38.1536 31.3388 38.0793L31.3062 36.4413C31.4744 36.5199 31.625 36.6317 31.7488 36.77C31.7956 36.8271 31.8628 36.8637 31.9361 36.872C32.0094 36.8803 32.083 36.8596 32.1414 36.8144C32.1703 36.7916 32.1943 36.7633 32.2123 36.7311C32.2302 36.699 32.2416 36.6636 32.2458 36.6271C32.2501 36.5905 32.2471 36.5534 32.237 36.518C32.2269 36.4826 32.2099 36.4496 32.1871 36.4207C31.9506 36.1464 31.6409 35.9451 31.2942 35.8403L31.2698 34.6233C31.4377 34.7019 31.588 34.8136 31.7117 34.9517C31.7585 35.0089 31.8257 35.0455 31.8991 35.0537C31.9725 35.0619 32.0462 35.0412 32.1045 34.9959C32.1334 34.973 32.1574 34.9446 32.1753 34.9125C32.1931 34.8803 32.2045 34.8449 32.2087 34.8084C32.2129 34.7718 32.2099 34.7348 32.1998 34.6994C32.1896 34.664 32.1727 34.631 32.1498 34.6022C31.9134 34.3282 31.604 34.1271 31.2577 34.0224L31.2333 32.8054C31.4011 32.8841 31.5512 32.9957 31.6748 33.1337C31.7216 33.1906 31.7888 33.2268 31.8621 33.2345C31.9353 33.2422 32.0086 33.2208 32.0662 33.1749C32.1237 33.1289 32.1609 33.0622 32.1696 32.9891C32.1783 32.9159 32.1579 32.8423 32.1128 32.7841C31.8765 32.5103 31.5674 32.3093 31.2213 32.2044L31.2067 31.472C31.4502 31.5939 31.6875 31.6993 31.9185 31.7883C32.8404 32.39 33.3862 33.1127 33.5747 33.9797C33.9887 35.8826 32.6071 38.5003 31.106 40.4143Z" fill="#0E311A" stroke="#0E311A" stroke-width="0.269454"/>
</g>
<mask id="path-10-outside-7_3547_1179" maskUnits="userSpaceOnUse" x="75.5566" y="16.8516" width="159" height="26" fill="black">
<rect fill="white" x="75.5566" y="16.8516" width="159" height="26"/>
<path d="M82.5009 18.2189V18.5863C81.1318 18.653 81.3321 19.7885 81.6327 20.423L90.7161 40.9943L99.7661 20.423C100.067 19.7885 100.267 18.653 98.8979 18.5863V18.2189H102.672V18.5863C101.302 18.653 100.668 19.7885 100.367 20.423L90.8831 41.9293H88.4119L78.8609 20.423C78.5603 19.7885 77.9258 18.653 76.5566 18.5863V18.2189H82.5009Z"/>
<path d="M103.675 31.4099H115.129C115.129 27.2022 113.393 24.4304 109.853 24.4304C106.513 24.4304 104.142 26.935 103.675 31.4099ZM118.001 31.9442H103.641C103.608 32.3116 103.608 32.6455 103.608 33.0129C103.608 38.5231 106.079 41.5954 110.654 41.5954C114.061 41.5954 117.701 39.8255 117.634 34.9832H118.001L118.702 39.0574C116.298 41.8292 112.791 42.2967 110.721 42.2967C104.743 42.2967 100.769 38.4897 100.769 32.8459C100.769 27.5695 104.209 23.9294 109.619 23.9294C114.328 23.9294 118.001 26.6678 118.001 31.9442Z"/>
<path d="M135.365 39.3579V26.1669C133.963 25.2319 132.326 24.6975 130.823 24.6975C126.749 24.6975 123.677 28.371 123.677 33.447C123.677 37.7884 125.914 41.4952 129.855 41.4952C131.825 41.4952 133.896 40.5601 135.365 39.3579ZM137.836 18.1855V40.4934C137.836 41.4284 138.705 41.4952 139.439 41.5286V41.9293C136.701 41.9961 135.365 41.395 135.365 40.126V40.0926C133.662 41.4952 131.358 42.2967 129.154 42.2967C124.345 42.2967 120.972 38.4563 120.972 33.3134C120.972 27.8367 124.779 23.8293 129.989 23.8293C131.458 23.8293 133.495 24.1632 135.365 25.332V19.5881C135.365 18.653 134.53 18.5863 133.796 18.5529V18.1855H137.836Z"/>
<path d="M156.063 39.6919C156.063 38.1891 156.229 34.6826 156.029 32.0444C154.76 30.8756 152.189 30.1743 150.352 30.1743C147.113 30.1743 144.575 32.345 144.575 35.8848C144.575 39.4247 147.113 41.5954 150.352 41.5954C152.222 41.5954 154.794 40.8607 156.063 39.6919ZM149.717 42.2967C145.176 42.2967 141.402 39.6585 141.402 35.8515C141.402 32.011 145.176 29.4396 149.717 29.4396C151.955 29.4396 154.293 30.0741 155.962 31.2096C156.163 26.4675 152.99 24.4304 149.884 24.4304C146.912 24.4304 143.64 26.3339 143.673 31.1762H143.306L142.604 27.102C145.009 24.3302 148.014 23.8961 150.018 23.8961C154.426 23.8961 158.534 26.1335 158.534 31.6103V40.4934C158.534 41.4284 159.369 41.4952 160.137 41.5286V41.9293C157.732 41.9961 156.396 41.3616 156.129 40.3932C154.46 41.5954 152.022 42.2967 149.717 42.2967Z"/>
<path d="M166.54 18.2189V18.5863C165.171 18.653 165.371 19.7885 165.672 20.423L174.755 40.9943L183.805 20.423C184.106 19.7885 184.306 18.653 182.937 18.5863V18.2189H186.711V18.5863C185.342 18.653 184.707 19.7885 184.406 20.423L174.922 41.9293H172.451L162.9 20.423C162.6 19.7885 161.965 18.653 160.596 18.5863V18.2189H166.54Z"/>
<path d="M187.445 41.9293V41.562C188.814 41.4952 189.048 41.1613 189.048 40.5268V25.666C189.048 24.9981 188.814 24.6641 187.445 24.5973V24.23H191.519V40.5268C191.519 41.1613 191.719 41.4952 193.122 41.562V41.9293H187.445ZM188.413 19.4211C188.413 18.4861 189.081 17.8516 190.083 17.8516C191.085 17.8516 191.753 18.4861 191.753 19.4211C191.753 20.3896 191.085 21.0241 190.083 21.0241C189.081 21.0241 188.413 20.3896 188.413 19.4211Z"/>
<path d="M209.229 39.3579V26.1669C207.827 25.2319 206.19 24.6975 204.688 24.6975C200.613 24.6975 197.541 28.371 197.541 33.447C197.541 37.7884 199.779 41.4952 203.719 41.4952C205.69 41.4952 207.76 40.5601 209.229 39.3579ZM211.701 18.1855V40.4934C211.701 41.4284 212.569 41.4952 213.304 41.5286V41.9293C210.565 41.9961 209.229 41.395 209.229 40.126V40.0926C207.526 41.4952 205.222 42.2967 203.018 42.2967C198.209 42.2967 194.836 38.4563 194.836 33.3134C194.836 27.8367 198.643 23.8293 203.853 23.8293C205.322 23.8293 207.359 24.1632 209.229 25.332V19.5881C209.229 18.653 208.395 18.5863 207.66 18.5529V18.1855H211.701Z"/>
<path d="M229.927 39.6919C229.927 38.1891 230.094 34.6826 229.893 32.0444C228.624 30.8756 226.053 30.1743 224.216 30.1743C220.977 30.1743 218.439 32.345 218.439 35.8848C218.439 39.4247 220.977 41.5954 224.216 41.5954C226.086 41.5954 228.658 40.8607 229.927 39.6919ZM223.582 42.2967C219.04 42.2967 215.266 39.6585 215.266 35.8515C215.266 32.011 219.04 29.4396 223.582 29.4396C225.819 29.4396 228.157 30.0741 229.827 31.2096C230.027 26.4675 226.854 24.4304 223.749 24.4304C220.776 24.4304 217.504 26.3339 217.537 31.1762H217.17L216.469 27.102C218.873 24.3302 221.879 23.8961 223.882 23.8961C228.29 23.8961 232.398 26.1335 232.398 31.6103V40.4934C232.398 41.4284 233.233 41.4952 234.001 41.5286V41.9293C231.596 41.9961 230.261 41.3616 229.994 40.3932C228.324 41.5954 225.886 42.2967 223.582 42.2967Z"/>
</mask>
<path d="M82.5009 18.2189V18.5863C81.1318 18.653 81.3321 19.7885 81.6327 20.423L90.7161 40.9943L99.7661 20.423C100.067 19.7885 100.267 18.653 98.8979 18.5863V18.2189H102.672V18.5863C101.302 18.653 100.668 19.7885 100.367 20.423L90.8831 41.9293H88.4119L78.8609 20.423C78.5603 19.7885 77.9258 18.653 76.5566 18.5863V18.2189H82.5009Z" fill="#0E311A"/>
<path d="M103.675 31.4099H115.129C115.129 27.2022 113.393 24.4304 109.853 24.4304C106.513 24.4304 104.142 26.935 103.675 31.4099ZM118.001 31.9442H103.641C103.608 32.3116 103.608 32.6455 103.608 33.0129C103.608 38.5231 106.079 41.5954 110.654 41.5954C114.061 41.5954 117.701 39.8255 117.634 34.9832H118.001L118.702 39.0574C116.298 41.8292 112.791 42.2967 110.721 42.2967C104.743 42.2967 100.769 38.4897 100.769 32.8459C100.769 27.5695 104.209 23.9294 109.619 23.9294C114.328 23.9294 118.001 26.6678 118.001 31.9442Z" fill="#0E311A"/>
<path d="M135.365 39.3579V26.1669C133.963 25.2319 132.326 24.6975 130.823 24.6975C126.749 24.6975 123.677 28.371 123.677 33.447C123.677 37.7884 125.914 41.4952 129.855 41.4952C131.825 41.4952 133.896 40.5601 135.365 39.3579ZM137.836 18.1855V40.4934C137.836 41.4284 138.705 41.4952 139.439 41.5286V41.9293C136.701 41.9961 135.365 41.395 135.365 40.126V40.0926C133.662 41.4952 131.358 42.2967 129.154 42.2967C124.345 42.2967 120.972 38.4563 120.972 33.3134C120.972 27.8367 124.779 23.8293 129.989 23.8293C131.458 23.8293 133.495 24.1632 135.365 25.332V19.5881C135.365 18.653 134.53 18.5863 133.796 18.5529V18.1855H137.836Z" fill="#0E311A"/>
<path d="M156.063 39.6919C156.063 38.1891 156.229 34.6826 156.029 32.0444C154.76 30.8756 152.189 30.1743 150.352 30.1743C147.113 30.1743 144.575 32.345 144.575 35.8848C144.575 39.4247 147.113 41.5954 150.352 41.5954C152.222 41.5954 154.794 40.8607 156.063 39.6919ZM149.717 42.2967C145.176 42.2967 141.402 39.6585 141.402 35.8515C141.402 32.011 145.176 29.4396 149.717 29.4396C151.955 29.4396 154.293 30.0741 155.962 31.2096C156.163 26.4675 152.99 24.4304 149.884 24.4304C146.912 24.4304 143.64 26.3339 143.673 31.1762H143.306L142.604 27.102C145.009 24.3302 148.014 23.8961 150.018 23.8961C154.426 23.8961 158.534 26.1335 158.534 31.6103V40.4934C158.534 41.4284 159.369 41.4952 160.137 41.5286V41.9293C157.732 41.9961 156.396 41.3616 156.129 40.3932C154.46 41.5954 152.022 42.2967 149.717 42.2967Z" fill="#0E311A"/>
<path d="M166.54 18.2189V18.5863C165.171 18.653 165.371 19.7885 165.672 20.423L174.755 40.9943L183.805 20.423C184.106 19.7885 184.306 18.653 182.937 18.5863V18.2189H186.711V18.5863C185.342 18.653 184.707 19.7885 184.406 20.423L174.922 41.9293H172.451L162.9 20.423C162.6 19.7885 161.965 18.653 160.596 18.5863V18.2189H166.54Z" fill="#0E311A"/>
<path d="M187.445 41.9293V41.562C188.814 41.4952 189.048 41.1613 189.048 40.5268V25.666C189.048 24.9981 188.814 24.6641 187.445 24.5973V24.23H191.519V40.5268C191.519 41.1613 191.719 41.4952 193.122 41.562V41.9293H187.445ZM188.413 19.4211C188.413 18.4861 189.081 17.8516 190.083 17.8516C191.085 17.8516 191.753 18.4861 191.753 19.4211C191.753 20.3896 191.085 21.0241 190.083 21.0241C189.081 21.0241 188.413 20.3896 188.413 19.4211Z" fill="#0E311A"/>
<path d="M209.229 39.3579V26.1669C207.827 25.2319 206.19 24.6975 204.688 24.6975C200.613 24.6975 197.541 28.371 197.541 33.447C197.541 37.7884 199.779 41.4952 203.719 41.4952C205.69 41.4952 207.76 40.5601 209.229 39.3579ZM211.701 18.1855V40.4934C211.701 41.4284 212.569 41.4952 213.304 41.5286V41.9293C210.565 41.9961 209.229 41.395 209.229 40.126V40.0926C207.526 41.4952 205.222 42.2967 203.018 42.2967C198.209 42.2967 194.836 38.4563 194.836 33.3134C194.836 27.8367 198.643 23.8293 203.853 23.8293C205.322 23.8293 207.359 24.1632 209.229 25.332V19.5881C209.229 18.653 208.395 18.5863 207.66 18.5529V18.1855H211.701Z" fill="#0E311A"/>
<path d="M229.927 39.6919C229.927 38.1891 230.094 34.6826 229.893 32.0444C228.624 30.8756 226.053 30.1743 224.216 30.1743C220.977 30.1743 218.439 32.345 218.439 35.8848C218.439 39.4247 220.977 41.5954 224.216 41.5954C226.086 41.5954 228.658 40.8607 229.927 39.6919ZM223.582 42.2967C219.04 42.2967 215.266 39.6585 215.266 35.8515C215.266 32.011 219.04 29.4396 223.582 29.4396C225.819 29.4396 228.157 30.0741 229.827 31.2096C230.027 26.4675 226.854 24.4304 223.749 24.4304C220.776 24.4304 217.504 26.3339 217.537 31.1762H217.17L216.469 27.102C218.873 24.3302 221.879 23.8961 223.882 23.8961C228.29 23.8961 232.398 26.1335 232.398 31.6103V40.4934C232.398 41.4284 233.233 41.4952 234.001 41.5286V41.9293C231.596 41.9961 230.261 41.3616 229.994 40.3932C228.324 41.5954 225.886 42.2967 223.582 42.2967Z" fill="#0E311A"/>
<path d="M82.5009 18.2189V18.5863C81.1318 18.653 81.3321 19.7885 81.6327 20.423L90.7161 40.9943L99.7661 20.423C100.067 19.7885 100.267 18.653 98.8979 18.5863V18.2189H102.672V18.5863C101.302 18.653 100.668 19.7885 100.367 20.423L90.8831 41.9293H88.4119L78.8609 20.423C78.5603 19.7885 77.9258 18.653 76.5566 18.5863V18.2189H82.5009Z" stroke="#0E311A" stroke-width="0.850054" mask="url(#path-10-outside-7_3547_1179)"/>
<path d="M103.675 31.4099H115.129C115.129 27.2022 113.393 24.4304 109.853 24.4304C106.513 24.4304 104.142 26.935 103.675 31.4099ZM118.001 31.9442H103.641C103.608 32.3116 103.608 32.6455 103.608 33.0129C103.608 38.5231 106.079 41.5954 110.654 41.5954C114.061 41.5954 117.701 39.8255 117.634 34.9832H118.001L118.702 39.0574C116.298 41.8292 112.791 42.2967 110.721 42.2967C104.743 42.2967 100.769 38.4897 100.769 32.8459C100.769 27.5695 104.209 23.9294 109.619 23.9294C114.328 23.9294 118.001 26.6678 118.001 31.9442Z" stroke="#0E311A" stroke-width="0.850054" mask="url(#path-10-outside-7_3547_1179)"/>
<path d="M135.365 39.3579V26.1669C133.963 25.2319 132.326 24.6975 130.823 24.6975C126.749 24.6975 123.677 28.371 123.677 33.447C123.677 37.7884 125.914 41.4952 129.855 41.4952C131.825 41.4952 133.896 40.5601 135.365 39.3579ZM137.836 18.1855V40.4934C137.836 41.4284 138.705 41.4952 139.439 41.5286V41.9293C136.701 41.9961 135.365 41.395 135.365 40.126V40.0926C133.662 41.4952 131.358 42.2967 129.154 42.2967C124.345 42.2967 120.972 38.4563 120.972 33.3134C120.972 27.8367 124.779 23.8293 129.989 23.8293C131.458 23.8293 133.495 24.1632 135.365 25.332V19.5881C135.365 18.653 134.53 18.5863 133.796 18.5529V18.1855H137.836Z" stroke="#0E311A" stroke-width="0.850054" mask="url(#path-10-outside-7_3547_1179)"/>
<path d="M156.063 39.6919C156.063 38.1891 156.229 34.6826 156.029 32.0444C154.76 30.8756 152.189 30.1743 150.352 30.1743C147.113 30.1743 144.575 32.345 144.575 35.8848C144.575 39.4247 147.113 41.5954 150.352 41.5954C152.222 41.5954 154.794 40.8607 156.063 39.6919ZM149.717 42.2967C145.176 42.2967 141.402 39.6585 141.402 35.8515C141.402 32.011 145.176 29.4396 149.717 29.4396C151.955 29.4396 154.293 30.0741 155.962 31.2096C156.163 26.4675 152.99 24.4304 149.884 24.4304C146.912 24.4304 143.64 26.3339 143.673 31.1762H143.306L142.604 27.102C145.009 24.3302 148.014 23.8961 150.018 23.8961C154.426 23.8961 158.534 26.1335 158.534 31.6103V40.4934C158.534 41.4284 159.369 41.4952 160.137 41.5286V41.9293C157.732 41.9961 156.396 41.3616 156.129 40.3932C154.46 41.5954 152.022 42.2967 149.717 42.2967Z" stroke="#0E311A" stroke-width="0.850054" mask="url(#path-10-outside-7_3547_1179)"/>
<path d="M166.54 18.2189V18.5863C165.171 18.653 165.371 19.7885 165.672 20.423L174.755 40.9943L183.805 20.423C184.106 19.7885 184.306 18.653 182.937 18.5863V18.2189H186.711V18.5863C185.342 18.653 184.707 19.7885 184.406 20.423L174.922 41.9293H172.451L162.9 20.423C162.6 19.7885 161.965 18.653 160.596 18.5863V18.2189H166.54Z" stroke="#0E311A" stroke-width="0.850054" mask="url(#path-10-outside-7_3547_1179)"/>
<path d="M187.445 41.9293V41.562C188.814 41.4952 189.048 41.1613 189.048 40.5268V25.666C189.048 24.9981 188.814 24.6641 187.445 24.5973V24.23H191.519V40.5268C191.519 41.1613 191.719 41.4952 193.122 41.562V41.9293H187.445ZM188.413 19.4211C188.413 18.4861 189.081 17.8516 190.083 17.8516C191.085 17.8516 191.753 18.4861 191.753 19.4211C191.753 20.3896 191.085 21.0241 190.083 21.0241C189.081 21.0241 188.413 20.3896 188.413 19.4211Z" stroke="#0E311A" stroke-width="0.850054" mask="url(#path-10-outside-7_3547_1179)"/>
<path d="M209.229 39.3579V26.1669C207.827 25.2319 206.19 24.6975 204.688 24.6975C200.613 24.6975 197.541 28.371 197.541 33.447C197.541 37.7884 199.779 41.4952 203.719 41.4952C205.69 41.4952 207.76 40.5601 209.229 39.3579ZM211.701 18.1855V40.4934C211.701 41.4284 212.569 41.4952 213.304 41.5286V41.9293C210.565 41.9961 209.229 41.395 209.229 40.126V40.0926C207.526 41.4952 205.222 42.2967 203.018 42.2967C198.209 42.2967 194.836 38.4563 194.836 33.3134C194.836 27.8367 198.643 23.8293 203.853 23.8293C205.322 23.8293 207.359 24.1632 209.229 25.332V19.5881C209.229 18.653 208.395 18.5863 207.66 18.5529V18.1855H211.701Z" stroke="#0E311A" stroke-width="0.850054" mask="url(#path-10-outside-7_3547_1179)"/>
<path d="M229.927 39.6919C229.927 38.1891 230.094 34.6826 229.893 32.0444C228.624 30.8756 226.053 30.1743 224.216 30.1743C220.977 30.1743 218.439 32.345 218.439 35.8848C218.439 39.4247 220.977 41.5954 224.216 41.5954C226.086 41.5954 228.658 40.8607 229.927 39.6919ZM223.582 42.2967C219.04 42.2967 215.266 39.6585 215.266 35.8515C215.266 32.011 219.04 29.4396 223.582 29.4396C225.819 29.4396 228.157 30.0741 229.827 31.2096C230.027 26.4675 226.854 24.4304 223.749 24.4304C220.776 24.4304 217.504 26.3339 217.537 31.1762H217.17L216.469 27.102C218.873 24.3302 221.879 23.8961 223.882 23.8961C228.29 23.8961 232.398 26.1335 232.398 31.6103V40.4934C232.398 41.4284 233.233 41.4952 234.001 41.5286V41.9293C231.596 41.9961 230.261 41.3616 229.994 40.3932C228.324 41.5954 225.886 42.2967 223.582 42.2967Z" stroke="#0E311A" stroke-width="0.850054" mask="url(#path-10-outside-7_3547_1179)"/>
<defs>
<clipPath id="clip0_3547_1179">
<rect width="16.7296" height="16.7296" fill="white" transform="translate(22.084 1.17188)"/>
</clipPath>
</defs>
</svg>
