<svg width="54" height="32" viewBox="0 0 54 32" fill="none" xmlns="http://www.w3.org/2000/svg">
<path fill-rule="evenodd" clip-rule="evenodd" d="M16.2125 10.602C15.814 11.0934 15.1764 11.4809 14.5388 11.4256C14.4592 10.7612 14.7713 10.0553 15.1366 9.61931C15.5351 9.11411 16.2324 8.75424 16.7969 8.72656C16.8633 9.41862 16.6043 10.0968 16.2125 10.602ZM22.1233 9.55007V20.3392H23.7305V16.6505H25.9554C27.9876 16.6505 29.4155 15.1972 29.4155 13.0934C29.4155 10.9895 28.0142 9.55007 26.0085 9.55007H22.1233ZM25.5833 10.9619H23.7304V15.2457H25.5767C26.978 15.2457 27.775 14.4637 27.775 13.1004C27.775 11.737 26.978 10.9619 25.5833 10.9619ZM32.3511 20.4223C33.3606 20.4223 34.297 19.8894 34.7221 19.0451H34.7553V20.3392H36.243V14.9689C36.243 13.4118 35.0475 12.4083 33.2078 12.4083C31.501 12.4083 30.2391 13.4256 30.1927 14.8236H31.6405C31.76 14.1592 32.3511 13.7232 33.1614 13.7232C34.1443 13.7232 34.6955 14.2007 34.6955 15.0796V15.6748L32.6898 15.7994C30.8236 15.917 29.8141 16.7129 29.8141 18.097C29.8141 19.4949 30.8568 20.4223 32.3511 20.4223ZM31.3814 18.0554C31.3814 18.7129 31.9259 19.142 32.7827 19.142C33.8719 19.142 34.6954 18.4222 34.6954 17.4118V16.8028L32.9089 16.9205C31.906 16.9827 31.3814 17.3772 31.3814 18.0554ZM38.2287 23.2736C39.796 23.2736 40.5332 22.6507 41.1774 20.7614L44 12.5121H42.3662L40.4734 18.886H40.4402L38.5474 12.5121H36.8672L39.5901 20.367L39.444 20.8445C39.1983 21.6542 38.7998 21.9656 38.0892 21.9656C37.963 21.9656 37.7173 21.9518 37.6177 21.9379V23.2321C37.7106 23.2597 38.1091 23.2736 38.2287 23.2736ZM15.3021 11.9024C15.716 11.733 16.2285 11.5233 16.7902 11.557C17.1489 11.5847 18.1849 11.6954 18.8491 12.7197C18.846 12.722 18.8393 12.7266 18.8293 12.7334C18.665 12.8447 17.6212 13.552 17.6337 14.9481C17.6462 16.6113 18.9463 17.2315 19.1164 17.3127C19.1275 17.318 19.1346 17.3218 19.1346 17.3218C19.1339 17.3241 19.1326 17.3285 19.1307 17.3351C19.0967 17.4495 18.8731 18.2034 18.3642 18.9758C17.8927 19.6956 17.4079 20.4015 16.6375 20.4153C16.2749 20.422 16.0307 20.3121 15.7764 20.1975C15.509 20.0771 15.2303 19.9516 14.7912 19.9516C14.3362 19.9516 14.0449 20.0805 13.7644 20.2045C13.5208 20.3122 13.2854 20.4163 12.9582 20.4291C12.2143 20.4568 11.6498 19.6679 11.1783 18.9481C10.2153 17.4948 9.47808 14.8512 10.4743 13.0657C10.9591 12.1729 11.8424 11.6124 12.7921 11.5985C13.2065 11.5907 13.6016 11.7542 13.9472 11.8973C14.2109 12.0065 14.4458 12.1037 14.6384 12.1037C14.8101 12.1037 15.0356 12.0114 15.3021 11.9024Z" fill="black"/>
</svg>
