<svg width="54" height="32" viewBox="0 0 54 32" fill="none" xmlns="http://www.w3.org/2000/svg">
<path d="M23.0292 8.69214L18.7089 19.217H15.8901L13.7638 10.8172C13.6351 10.3011 13.523 10.1111 13.1307 9.89293C12.4895 9.53727 11.4307 9.20464 10.5 8.99766L10.5628 8.69214H15.1008C15.6783 8.69214 16.1983 9.0848 16.3305 9.76469L17.4539 15.8556L20.2275 8.69214H23.0292ZM26.8399 8.69214L24.635 19.217H21.9683L24.1732 8.69214H26.8399ZM34.0734 15.7807C34.0846 13.0035 30.3127 12.8494 30.3374 11.6084C30.3464 11.2312 30.6983 10.8295 31.4687 10.7269C31.8503 10.6765 32.9044 10.6363 34.0985 11.1981L34.5656 8.96495C33.924 8.72807 33.0985 8.5 32.0715 8.5C29.4353 8.5 27.5809 9.92972 27.5662 11.9787C27.5489 13.4942 28.8907 14.3389 29.8997 14.8437C30.9392 15.3592 31.2877 15.6905 31.2828 16.1512C31.2754 16.8573 30.4528 17.17 29.688 17.1816C28.3468 17.2033 27.5693 16.8115 26.9492 16.5165L26.4652 18.8237C27.0891 19.1156 28.239 19.3693 29.4299 19.3822C32.2323 19.3822 34.0652 17.9688 34.0734 15.7807ZM41.0345 19.217H43.5L41.3459 8.69214H39.0712C38.5581 8.69214 38.127 8.99615 37.9357 9.46369L33.9343 19.217H36.7346L37.2901 17.6448H40.7113L41.0345 19.217ZM38.0579 15.4881L39.462 11.5357L40.2686 15.4881H38.0579ZM30.2526 22.114H29.1692V23.1438H30.3811V23.4534H28.804V20.5965H30.319V20.9061H29.1692V21.8087H30.2526V22.114ZM30.9409 20.4441H31.306V23.4533H30.9409V20.4441ZM32.2272 22.4953C32.2354 22.9999 32.5468 23.2075 32.916 23.2075C33.1777 23.2075 33.3395 23.1608 33.4725 23.1017L33.5388 23.3687C33.4101 23.4278 33.1861 23.4999 32.8663 23.4999C32.248 23.4999 31.8787 23.0804 31.8787 22.4616C31.8787 21.8428 32.2354 21.3595 32.8207 21.3595C33.4807 21.3595 33.6509 21.9445 33.6509 22.3217C33.6509 22.3979 33.6467 22.453 33.6383 22.4953H32.2272ZM33.298 22.2283C33.3022 21.9953 33.2025 21.6265 32.7917 21.6265C32.4181 21.6265 32.2603 21.9699 32.2312 22.2283H33.298ZM35.6382 23.3812C35.5427 23.4279 35.331 23.5 35.0613 23.5C34.4553 23.5 34.061 23.0804 34.061 22.453C34.061 21.8216 34.4841 21.3596 35.1401 21.3596C35.3558 21.3596 35.5467 21.4145 35.6464 21.4698L35.5636 21.7538C35.4762 21.7071 35.3392 21.6561 35.1401 21.6561C34.6793 21.6561 34.4304 22.0079 34.4304 22.432C34.4304 22.9066 34.7292 23.199 35.1276 23.199C35.3352 23.199 35.4721 23.1482 35.5758 23.1015L35.6382 23.3812ZM36.6627 20.9103V21.4019H37.1855V21.6857H36.6627V22.792C36.6627 23.0466 36.7333 23.1905 36.9366 23.1905C37.0361 23.1905 37.0944 23.1821 37.1484 23.1649L37.165 23.4491C37.0944 23.4745 36.9823 23.4999 36.8412 23.4999C36.6709 23.4999 36.534 23.4405 36.4469 23.3433C36.3473 23.2286 36.3058 23.0466 36.3058 22.805V21.6857H35.9943V21.4019H36.3058V21.0204L36.6627 20.9103ZM37.6957 22.042C37.6957 21.8003 37.6912 21.5927 37.679 21.4019H37.9987L38.0153 21.8087H38.0275C38.119 21.5333 38.343 21.3595 38.5878 21.3595C38.6253 21.3595 38.6544 21.3638 38.6877 21.3679V21.7199C38.6502 21.7113 38.6131 21.7113 38.5629 21.7113C38.3059 21.7113 38.123 21.9062 38.0733 22.1861C38.065 22.2369 38.0608 22.3004 38.0608 22.36V23.4534H37.6957V22.042ZM40.9326 22.4106C40.9326 23.1693 40.4136 23.5 39.9322 23.5C39.3926 23.5 38.9695 23.0929 38.9695 22.4446C38.9695 21.7622 39.4134 21.3596 39.9655 21.3596C40.5424 21.3596 40.9326 21.7875 40.9326 22.4106ZM39.3428 22.4319C39.3428 22.8812 39.5919 23.2203 39.9488 23.2203C40.2975 23.2203 40.5588 22.8853 40.5588 22.4233C40.5588 22.0759 40.3888 21.6391 39.957 21.6391C39.5297 21.6391 39.3428 22.0462 39.3428 22.4319ZM41.4923 21.9571C41.4923 21.741 41.4879 21.5715 41.4756 21.402H41.7993L41.8201 21.741H41.8284C41.928 21.5502 42.1604 21.3596 42.4925 21.3596C42.7704 21.3596 43.2022 21.5291 43.2022 22.2325V23.4533H42.837V22.2708C42.837 21.9403 42.7167 21.6647 42.3722 21.6647C42.1356 21.6647 41.9487 21.8385 41.8825 22.0461C41.8657 22.0928 41.8574 22.1563 41.8574 22.22V23.4533H41.4923V21.9571Z" fill="#1434CB"/>
</svg>
